<svg width="24" height="24" viewBox="0 0 24 24" fill="none" xmlns="http://www.w3.org/2000/svg">
<path fill-rule="evenodd" clip-rule="evenodd" d="M12 0C18.6277 0 24 5.37234 24 12C24 18.6277 18.6277 24 12 24C5.37234 24 0 18.6277 0 12C0 5.37234 5.37234 0 12 0ZM9.48938 5.94703C7.23187 6.05016 6.04594 7.32047 5.9475 9.48938C5.8725 11.1314 5.8725 12.8686 5.9475 14.5106C6.04594 16.6795 7.23187 17.9498 9.48938 18.053C11.1319 18.1275 12.8686 18.1275 14.5111 18.053C16.68 17.9536 17.9498 16.7695 18.053 14.5106C18.1275 12.8681 18.1275 11.1323 18.053 9.48938C17.9517 7.27875 16.7217 6.04828 14.5111 5.94703C12.8686 5.8725 11.1319 5.8725 9.48938 5.94703ZM14.4609 7.04344C16.1011 7.11797 16.8825 7.89891 16.9566 9.53953C17.0306 11.1473 17.0306 12.8527 16.9566 14.4605C16.8802 16.1484 16.0584 16.8839 14.4609 16.9566C12.8522 17.0302 11.1483 17.0302 9.53953 16.9566C7.94156 16.8839 7.12031 16.1484 7.04344 14.4605C6.96984 12.8527 6.96984 11.1473 7.04344 9.53953C7.11609 7.94109 7.85203 7.12031 9.53953 7.04344C11.1483 6.96984 12.8522 6.96984 14.4609 7.04344ZM12 14.0297C10.8792 14.0297 9.97031 13.1213 9.97031 12C9.97078 10.8787 10.8792 9.97031 12 9.97031C13.1213 9.97031 14.0302 10.8787 14.0302 12C14.0302 13.1208 13.1213 14.0297 12 14.0297ZM12 8.87297C10.2736 8.87297 8.87297 10.2731 8.87297 12C8.87297 13.7269 10.2731 15.127 12 15.127C13.7273 15.127 15.127 13.7269 15.127 12C15.127 10.2731 13.7273 8.87297 12 8.87297ZM15.9816 8.74922C15.9816 9.15281 15.6544 9.48047 15.2508 9.48047C14.8467 9.48047 14.52 9.15328 14.52 8.74969C14.52 8.34609 14.8467 8.01891 15.2508 8.01891C15.6544 8.01891 15.9816 8.34609 15.9816 8.74922Z" fill="#15BFFD"/>
</svg>
