<svg width="78" height="6" viewBox="0 0 78 6" fill="none" xmlns="http://www.w3.org/2000/svg">
<path d="M77.5996 3L72.5996 0.113248L72.5996 5.88675L77.5996 3ZM73.1688 2.5L70.215 2.5L70.215 3.5L73.1688 3.5L73.1688 2.5ZM67.2611 2.5L64.3073 2.5L64.3073 3.5L67.2611 3.5L67.2611 2.5ZM61.3535 2.5L58.3996 2.5L58.3996 3.5L61.3535 3.5L61.3535 2.5ZM55.4458 2.5L52.4919 2.5L52.4919 3.5L55.4458 3.5L55.4458 2.5ZM49.5381 2.5L46.5842 2.5L46.5842 3.5L49.5381 3.5L49.5381 2.5ZM43.6304 2.5L40.6765 2.5L40.6765 3.5L43.6304 3.5L43.6304 2.5ZM37.7227 2.5L34.7688 2.5L34.7688 3.5L37.7227 3.5L37.7227 2.5ZM31.815 2.5L28.8611 2.5L28.8611 3.5L31.815 3.5L31.815 2.5ZM25.9073 2.5L22.9535 2.5L22.9535 3.5L25.9073 3.5L25.9073 2.5ZM19.9996 2.49999L17.0458 2.49999L17.0458 3.49999L19.9996 3.49999L19.9996 2.49999ZM14.0919 2.49999L11.1381 2.49999L11.1381 3.49999L14.0919 3.49999L14.0919 2.49999ZM8.18422 2.49999L5.23037 2.49999L5.23037 3.49999L8.18422 3.49999L8.18422 2.49999ZM2.27652 2.49999L0.799606 2.49999L0.799606 3.49999L2.27652 3.49999L2.27652 2.49999Z" fill="#15BFFD"/>
</svg>
