<svg width="77" height="7" viewBox="0 0 77 7" fill="none" xmlns="http://www.w3.org/2000/svg">
<path d="M0.199219 3.80078L5.19922 6.68753L5.19922 0.914031L0.199219 3.80078ZM4.62999 4.30078L7.58383 4.30078L7.58383 3.30078L4.62999 3.30078L4.62999 4.30078ZM10.5377 4.30078L13.4915 4.30078L13.4915 3.30078L10.5377 3.30078L10.5377 4.30078ZM16.4454 4.30078L19.3992 4.30078L19.3992 3.30078L16.4454 3.30078L16.4454 4.30078ZM22.3531 4.30079L25.3069 4.30079L25.3069 3.30079L22.3531 3.30079L22.3531 4.30079ZM28.2608 4.30079L31.2146 4.30079L31.2146 3.30079L28.2608 3.30079L28.2608 4.30079ZM34.1684 4.30079L37.1223 4.30079L37.1223 3.30079L34.1685 3.30079L34.1684 4.30079ZM40.0761 4.30079L43.03 4.30079L43.03 3.30079L40.0761 3.30079L40.0761 4.30079ZM45.9838 4.30079L48.9377 4.30079L48.9377 3.30079L45.9838 3.30079L45.9838 4.30079ZM51.8915 4.30079L54.8454 4.30079L54.8454 3.30079L51.8915 3.30079L51.8915 4.30079ZM57.7992 4.30079L60.7531 4.30079L60.7531 3.30079L57.7992 3.30079L57.7992 4.30079ZM63.7069 4.30079L66.6608 4.30079L66.6608 3.30079L63.7069 3.30079L63.7069 4.30079ZM69.6146 4.30079L72.5685 4.30079L72.5685 3.30079L69.6146 3.30079L69.6146 4.30079ZM75.5223 4.30079L76.9992 4.30079L76.9992 3.30079L75.5223 3.30079L75.5223 4.30079Z" fill="#15BFFD"/>
</svg>
