<svg width="12" height="20" viewBox="0 0 12 20" fill="none" xmlns="http://www.w3.org/2000/svg">
<path d="M0.439453 9.72461C2.38201 10.7562 4.40904 11.8361 5.97457 12.6716L11.4644 9.72461C9.4766 12.6776 7.82035 15.136 5.97457 17.8569C4.12552 15.142 2.08344 12.1465 0.439453 9.72461Z" fill="#EDEDED"/>
<path d="M0.650391 8.91051L5.98033 6.06641L11.241 8.88974L5.98337 11.737L0.650391 8.91051Z" fill="#EDEDED"/>
<path d="M5.97463 5.155L0.439453 8.06887L5.95046 0L11.4645 8.08696L5.97463 5.155Z" fill="#EDEDED"/>
<path d="M11.5476 19.9994H0.357143C0.159881 19.9994 0 19.8396 0 19.6423C0 19.445 0.159881 19.2852 0.357143 19.2852H11.5476C11.7449 19.2852 11.9048 19.445 11.9048 19.6423C11.9048 19.8396 11.7449 19.9994 11.5476 19.9994Z" fill="#EDEDED"/>
</svg>
