<svg width="51" height="61" viewBox="0 0 51 61" fill="none" xmlns="http://www.w3.org/2000/svg">
<path fill-rule="evenodd" clip-rule="evenodd" d="M28.871 21.2443C30.57 23.1183 32.0983 24.8932 33.4558 26.5818V46.1218H31.0983C28.8195 46.1218 27.5809 48.7988 29.0557 50.5357L33.9997 56.3586C30.4805 59.0065 25.9068 60.5813 20.8913 60.4968C6.43571 60.7403 -4.35839 47.2088 3.22922 33.8859C5.34096 30.1782 8.56871 26.0348 12.9119 21.2442C13.3416 21.3658 13.7944 21.4311 14.2621 21.4311H27.521C27.9885 21.4311 28.4414 21.366 28.871 21.2443ZM40.972 60.2601L50.3278 49.2412C50.7031 48.7988 50.39 48.1218 49.8098 48.1218H45.4523V26.4669C45.4523 25.7183 44.8418 25.1078 44.0931 25.1078L36.8148 25.108C36.0662 25.108 35.4558 25.7185 35.4557 26.4671V48.1218H31.0982C30.518 48.1218 30.2049 48.7989 30.5802 49.2412L39.9359 60.2601C40.2074 60.5798 40.7008 60.5799 40.972 60.2601ZM14.2619 19.4311H27.5209C29.1557 19.4311 30.493 18.0936 30.493 16.4592C30.493 14.8245 29.1557 13.4872 27.5209 13.4872H14.2619C12.6272 13.4872 11.29 14.8245 11.29 16.4591C11.29 18.0938 12.6272 19.4311 14.2619 19.4311ZM21.6484 46.821C19.5708 47.073 17.1987 46.2739 16.6446 44.0515C16.5129 43.5165 15.9726 43.1895 15.4376 43.321C14.9026 43.4527 14.5756 43.993 14.7071 44.528C15.3201 46.987 17.4092 48.4618 19.8348 48.793V50.1403C19.8348 50.6925 20.2826 51.1403 20.8348 51.1403C21.3871 51.1403 21.8348 50.6925 21.8348 50.1402V48.8109L21.8828 48.8053C24.4498 48.4937 27.0577 46.972 26.9885 44.0744C26.9845 43.9038 26.9743 43.749 26.9575 43.6113C26.5764 40.4713 23.7506 39.3717 21.0096 38.9217C20.0684 38.7672 19.0722 38.5024 18.3287 38.0171C17.7012 37.6074 17.2508 37.0111 17.2083 36.1346C17.1282 34.4847 18.4564 33.4497 19.9447 33.1499C20.6158 33.0148 21.3474 33.0308 22.0093 33.1986C23.1133 33.4784 24.1183 34.2058 24.6473 35.4656C24.8608 35.9747 25.4468 36.2143 25.9559 36.0007C26.465 35.7872 26.7047 35.2012 26.491 34.6921C25.6583 32.7087 23.9452 31.4339 21.8348 31.1308V29.7877C21.8348 29.2354 21.3871 28.7877 20.8348 28.7877C20.2826 28.7877 19.8348 29.2354 19.8348 29.7877V31.1464C19.7407 31.1612 19.6472 31.1781 19.5541 31.1967C17.0859 31.6937 15.0869 33.5686 15.2161 36.2282C15.3637 39.2708 18.0628 40.459 20.6892 40.8903C22.4287 41.1759 24.7212 41.7705 24.9731 43.8455C24.9869 43.9603 24.9947 44.0518 24.9963 44.1212C25.0386 45.8924 23.1238 46.6419 21.6484 46.821ZM14.5788 11.4872L11.7127 8.62123C10.525 7.43349 10.525 5.48974 11.7127 4.30199C12.7229 3.29174 14.3222 3.12099 15.5243 3.89262C16.4499 4.48649 17.6726 3.98037 17.9069 2.90575C18.2063 1.535 19.4338 0.500125 20.8914 0.5C22.3227 0.5 23.5711 1.50875 23.8761 2.90587C24.1106 3.98024 25.3331 4.48674 26.2585 3.89274C27.4604 3.12137 29.0599 3.29187 30.0702 4.30187C31.2579 5.48962 31.2579 7.43361 30.0702 8.62123L27.2042 11.4871L14.5788 11.4872Z" fill="#15BFFD"/>
</svg>
