<svg width="149" height="140" viewBox="0 0 149 140" fill="none" xmlns="http://www.w3.org/2000/svg">
<path d="M129.089 87.2463L129.361 77.9422L93.6832 76.8984L93.4109 86.2026L129.089 87.2463Z" fill="url(#paint0_radial_659_1861)"/>
<path d="M122.607 88.9681C125.616 92.5527 130.962 93.0195 134.546 90.0104C138.131 87.0013 138.598 81.656 135.589 78.0712C132.58 74.4865 127.234 74.0195 123.65 77.0287C120.065 80.0378 119.598 85.383 122.607 88.9681Z" fill="url(#paint1_radial_659_1861)"/>
<g opacity="0.7">
<path d="M54.6614 49.6883V45.3384C55.7226 44.7536 57.5758 43.9107 58.1972 43.6225C62.6833 41.7216 66.1757 40.4062 74.0447 38.8593C83.9259 37.1963 92.1123 36.9952 102.775 38.4998C112.458 40.1333 120.537 42.6146 128.824 48.0804L129.138 48.3065C132.657 50.8396 136.871 53.8807 136.871 53.8807C139.565 57.2222 140.461 61.6284 140.788 65.7271C141.473 67.5067 141.631 69.5607 140.825 72.212C137.268 68.4612 133.286 65.9149 129.129 63.6201C122.761 60.4023 119.112 59.2631 114.281 57.8911C96.8514 53.4677 80.6954 53.8192 64.6521 57.8911C61.6331 58.7484 58.9392 59.5135 54.6523 61.3293V49.6932C54.655 49.6917 54.6584 49.6899 54.6614 49.6883Z" fill="#2C65D6"/>
<path d="M50.4304 41.8691V58.9537L54.6616 61.3507V56.9752V45.339L50.4304 41.8691Z" fill="#2C65D6"/>
<path d="M107.108 34.8372C107.108 34.8372 109.411 35.2134 114.29 36.4515L116.59 37.1048C126.288 40.1721 134.531 44.1273 141.527 51.5022L142.659 52.8305C145.991 57.2081 146.792 59.4714 147.659 62.7343L147.94 64.2115C148.137 65.9223 148.312 66.8762 147.94 70.1024L147.659 71.5793C145.433 79.9522 140.035 85.2417 132.735 90.0562C132.735 90.0562 130.193 91.7268 126.094 93.6239L120.753 90.6912L120.898 90.6241C128.073 87.3022 131.658 84.4352 135.044 80.8669L136.035 79.7035C139.451 75.2165 140.367 72.306 140.812 68.4379C141.141 65.5729 140.208 61.1635 138.488 58.2479C136.998 55.7202 135.621 54.0557 135.044 53.4469C126.121 44.0433 112.46 39.5505 99.679 38.0886C94.6642 37.515 91.548 37.5157 89.4752 37.4889C89.4813 37.4889 88.358 37.4755 85.015 37.6037L84.3733 37.6442C76.9397 38.1161 70.0779 39.2545 62.3606 41.9624C58.5364 43.3041 55.0527 45.1226 54.6613 45.3383L50.4302 41.8683C67.5741 33.2047 88.3492 31.6718 107.108 34.8372Z" fill="#83B8FC"/>
<path d="M126.094 93.6242V110.709L120.884 107.701L120.754 90.6914L126.094 93.6242Z" fill="#2C65D6"/>
<path d="M140.305 84.0992C144.497 79.6799 146.797 76.1122 147.941 70.1017L148.111 68.6248L148.168 67.1562L148.111 85.7095L147.941 87.1864V85.8819C147.886 88.1903 147.72 88.4351 147.269 90.1319C146.416 92.6206 146.105 93.3177 144.628 95.8225C142.383 99.1506 141.197 100.337 138.983 102.439C134.645 106.18 130.957 108.457 126.094 110.708V93.6232C132.139 90.8251 136.184 88.0139 140.305 84.0992Z" fill="#3685FC"/>
<path d="M140.576 85.8554C143.41 82.4777 145.29 79.63 146.304 75.6091C147.008 73.9757 147.544 72.1861 147.941 70.1027L148.111 68.6259L148.139 67.9107C148.147 67.907 148.157 67.904 148.166 67.9004L148.122 82.0974C146.956 84.2986 145.469 86.3081 143.67 88.4523C143.299 88.8943 142.779 89.1374 142.246 89.1699C141.747 89.2003 141.237 89.0471 140.825 88.7011C139.97 87.9841 139.859 86.7098 140.576 85.8554Z" fill="#E2F1F7"/>
<path d="M128.643 99.5437C128.927 99.5263 129.211 99.4487 129.477 99.3053C130.331 98.845 131.156 98.3797 131.93 97.9225C132.939 97.3259 133.911 96.713 134.818 96.1012C135.743 95.4774 135.987 94.222 135.363 93.2972C134.74 92.3719 133.484 92.128 132.559 92.7518C131.718 93.3192 130.814 93.8891 129.874 94.4449C129.146 94.8755 128.367 95.3145 127.56 95.7494C126.579 96.2787 126.212 97.5039 126.741 98.4859C127.127 99.2014 127.882 99.5903 128.643 99.5437Z" fill="#E2F1F7"/>
<path d="M148.121 82.2109L148.111 85.7092L147.94 87.1861V85.8816C147.886 88.19 147.72 88.4349 147.269 90.1316C146.708 91.7665 146.38 92.6298 145.804 93.7386C145.355 93.7551 144.899 93.623 144.513 93.3311C143.623 92.6583 143.447 91.3917 144.12 90.5016C146.185 87.7709 147.393 85.3053 148.121 82.2109Z" fill="#E2F1F7"/>
<path d="M129.665 106.562C129.949 106.551 130.235 106.481 130.504 106.343C133.848 104.644 136.572 102.969 139.076 101.074C140.375 100.091 141.611 99.0513 142.857 97.8939C143.674 97.1343 143.721 95.8564 142.961 95.0392C142.202 94.222 140.924 94.1757 140.107 94.9347C138.962 95.9986 137.827 96.9531 136.638 97.8525C134.329 99.5999 131.798 101.153 128.674 102.742C127.679 103.248 127.283 104.464 127.788 105.458C128.157 106.183 128.902 106.59 129.665 106.562Z" fill="#E2F1F7"/>
</g>
<path d="M122.187 45.9727L113.374 48.9675L124.857 82.7628C124.857 82.7628 126.771 83.001 129.265 82.2487C132.406 81.3015 133.67 79.7679 133.67 79.7679L122.187 45.9727Z" fill="url(#paint2_radial_659_1861)"/>
<path opacity="0.7" d="M70.1423 125.711C64.4809 128.98 64.4809 134.279 70.1423 137.548C75.8034 140.817 84.9823 140.817 90.6437 137.548C96.3051 134.279 96.3051 128.98 90.6437 125.711C84.9823 122.443 75.8033 122.443 70.1423 125.711Z" fill="#2030A5"/>
<path d="M86.0715 84.129C86.0715 88.809 89.866 92.6034 94.5462 92.6034C99.2264 92.6034 103.021 88.8091 103.021 84.129C103.021 79.4486 99.2266 75.6543 94.5462 75.6543C89.8658 75.6543 86.0715 79.4486 86.0715 84.129Z" fill="url(#paint3_radial_659_1861)"/>
<path d="M63.4192 89.7403V90.1045C64.2141 89.3642 65.1625 88.663 66.2757 88.0204C74.0676 83.5219 86.701 83.5219 94.4931 88.0204C95.614 88.6676 96.5682 89.3742 97.3667 90.1205V89.6036H100.351V94.0059C100.285 96.9179 94.4157 130.282 94.4157 130.282C94.3695 132.329 93.0038 134.369 90.2998 135.93C84.8251 139.09 75.9487 139.09 70.474 135.93C67.8127 134.393 66.4492 132.392 66.3751 130.379C66.3698 130.379 66.3698 130.255 66.3698 130.255V127.286C66.3698 127.286 60.5471 97.0087 60.4416 94.1429C60.4343 94.1429 60.4343 93.9673 60.4343 93.9673V89.7404H63.4192V89.7403Z" fill="#90CAF4"/>
<path d="M63.4191 90.1045C64.214 89.3642 65.1624 88.663 66.2756 88.0204C74.0675 83.5219 86.7009 83.5219 94.493 88.0204C95.6139 88.6676 96.5681 89.3742 97.3666 90.1205V89.6036H100.351V94.0059C100.285 96.9179 98.3413 99.8214 94.493 102.043C86.7009 106.542 74.0676 106.542 66.2756 102.043C62.4877 99.8562 60.547 97.0087 60.4416 94.1429C60.4346 94.1429 60.4346 93.9673 60.4346 93.9673V93.8275V89.7404H63.4191V90.1045Z" fill="url(#paint4_radial_659_1861)"/>
<path d="M66.284 81.8096C58.4922 86.3085 58.4922 93.6026 66.284 98.1014C74.0762 102.601 86.7099 102.601 94.5017 98.1014C102.294 93.6026 102.294 86.3084 94.5017 81.8096C86.7099 77.3109 74.0763 77.3109 66.284 81.8096Z" fill="#E2F1F7"/>
<path d="M85.7956 66.2441V88.1921C84.8445 92.3624 75.9413 92.3615 74.99 88.1921V66.2441H85.7956Z" fill="url(#paint5_linear_659_1861)"/>
<path d="M82.7876 47.9806L84.2255 37.4573L84.7136 33.8926L84.5766 34.9083L84.7143 33.8993L85.289 33.9063C85.2899 33.8993 85.4556 35.1207 85.4556 35.1207L85.2899 33.8927L85.9115 38.4309L87.2166 47.9807L87.2187 48.0358L87.2154 48.0817C87.2167 48.0903 87.2103 48.1466 87.2103 48.1466L87.1996 48.203L87.1844 48.2587L87.1658 48.3134L87.1433 48.3667L87.1164 48.4197L87.0854 48.4728L87.0495 48.5251L87.0105 48.5772L86.9679 48.6274L86.9217 48.6755L86.8724 48.7228L86.8185 48.7688L86.7606 48.8148L86.6992 48.859L86.6355 48.901L86.5694 48.9405L86.5009 48.9786L86.428 49.0157L86.3513 49.0511L86.2724 49.0843L86.192 49.1153L86.1106 49.1443L86.0269 49.1705L85.94 49.1948C85.94 49.1948 85.6879 49.2782 85.1941 49.3105L85.0973 49.3145L85.0019 49.3154L84.9066 49.3145L84.8104 49.3105C84.5843 49.2959 84.4741 49.2837 84.2451 49.2383C84.1124 49.2088 84.0645 49.1948 84.0645 49.1948L83.9772 49.1705L83.8934 49.1443L83.8127 49.1153L83.732 49.0843L83.6528 49.0511L83.5767 49.0157L83.5036 48.9786L83.4348 48.9405L83.3687 48.901L83.3054 48.859L83.2442 48.8148L83.1854 48.7688L83.1321 48.7228L83.0825 48.6755L83.0368 48.6274L82.9938 48.5772L82.9545 48.5251L82.9192 48.4728L82.8878 48.4197L82.861 48.3667L82.8387 48.3134L82.8195 48.2587L82.8048 48.203L82.7942 48.1466L82.7878 48.0903L82.7856 48.0357L82.7876 47.9806Z" fill="url(#paint6_linear_659_1861)"/>
<path d="M84.8019 33.7786C84.6907 33.8426 84.6907 33.9464 84.8019 34.0103C84.9127 34.0747 85.0927 34.0747 85.2036 34.0103C85.3145 33.9464 85.3145 33.8426 85.2036 33.7786C85.0928 33.7144 84.9128 33.7144 84.8019 33.7786Z" fill="#BDDFF4"/>
<path d="M59.4426 65.7833C59.4426 76.5721 68.1887 85.3182 78.9776 85.3182C89.7664 85.3182 98.5125 76.5721 98.5125 65.7833C98.5125 54.9941 89.7664 46.248 78.9776 46.248C68.1887 46.248 59.4426 54.9941 59.4426 65.7833Z" fill="url(#paint7_radial_659_1861)"/>
<path d="M78.9776 46.248C79.6194 46.248 80.2535 46.2812 80.8794 46.3418C85.3654 48.3587 90.3808 51.3283 89.1784 54.1468C87.5029 58.0734 72.7157 52.7412 66.8755 50.4545C70.2035 47.8233 74.4055 46.248 78.9776 46.248Z" fill="url(#paint8_radial_659_1861)"/>
<path d="M58.5261 65.5298C58.5261 70.5009 62.0159 76.5455 66.321 79.0308C70.6258 81.5165 74.1159 79.5014 74.1159 74.5305C74.1159 69.5595 70.6261 63.5147 66.321 61.0294C62.0162 58.544 58.5261 60.5588 58.5261 65.5298Z" fill="#3685FC"/>
<path d="M61.6196 67.3155C61.6196 70.3137 63.7245 73.9597 66.321 75.4587C68.9175 76.9575 71.0224 75.7423 71.0224 72.7441C71.0227 69.746 68.9178 66.1002 66.321 64.6011C63.7246 63.102 61.6196 64.3172 61.6196 67.3155Z" fill="#2030A5"/>
<path d="M63.0006 64.2695C62.7798 64.7711 62.6555 65.3858 62.6555 66.1064C62.6555 69.1046 64.7604 72.7507 67.3568 74.2497C68.6531 74.998 69.8269 75.0696 70.6773 74.5807C69.9795 76.1663 68.2933 76.5967 66.321 75.4583C63.7246 73.9591 61.6196 70.3131 61.6196 67.315C61.6196 65.8137 62.1475 64.7595 63.0006 64.2695Z" fill="#2C65D6"/>
<path d="M63.7873 56.623L65.2252 46.0998L65.7134 42.5352L65.5763 43.5509L65.7141 42.5422L66.2887 42.5491C66.2896 42.5422 66.4553 43.7631 66.4553 43.7631L66.2896 42.5352L66.9112 47.0736L68.2163 56.623L68.2184 56.6782L68.2151 56.7242C68.2164 56.7331 68.2099 56.7894 68.2099 56.7894L68.1992 56.8454L68.184 56.9012L68.1654 56.9564L68.1429 57.0093L68.1161 57.0623L68.085 57.1152L68.0491 57.1676L68.0101 57.2197L67.9675 57.2699L67.9213 57.318L67.872 57.3651L67.818 57.4111L67.7601 57.4574L67.6987 57.5013L67.635 57.5435L67.5689 57.5832L67.5004 57.6213L67.4275 57.6581L67.3508 57.6934L67.2719 57.7266L67.1915 57.7576L67.1101 57.7866L67.0264 57.8127L66.9395 57.8374C66.9395 57.8374 66.6874 57.9208 66.1936 57.9532L66.0968 57.9568L66.0015 57.9581L65.9061 57.9568L65.8099 57.9532C65.5838 57.9385 65.4736 57.926 65.2446 57.881C65.1119 57.8512 65.064 57.8375 65.064 57.8375L64.9767 57.8129L64.8929 57.7867L64.8122 57.7577L64.7315 57.7267L64.6527 57.6935L64.5762 57.6582L64.5031 57.6214L64.4342 57.5833L64.3681 57.5436L64.3048 57.5014L64.2436 57.4575L64.185 57.4113L64.1314 57.3652L64.0817 57.3181L64.0361 57.27L63.9931 57.2198L63.9538 57.1677L63.9184 57.1153L63.8871 57.0624L63.8603 57.0094L63.838 56.9565L63.8188 56.9014L63.8041 56.8456L63.7934 56.7895L63.7871 56.7332L63.7849 56.6784L63.7873 56.623Z" fill="url(#paint9_linear_659_1861)"/>
<path d="M65.8014 42.421C65.6902 42.4854 65.6902 42.5889 65.8014 42.6531C65.9123 42.7171 66.0923 42.7171 66.2031 42.6531C66.314 42.5888 66.314 42.4852 66.2031 42.421C66.0922 42.3571 65.9123 42.3571 65.8014 42.421Z" fill="#BDDFF4"/>
<path d="M76.4597 66.2536C84.2752 63.0334 94.9192 58.8671 95.4369 55.2695C97.381 58.3059 98.5125 61.9122 98.5125 65.7852C98.5125 67.1551 98.37 68.4922 98.1017 69.7827C95.4193 73.2916 88.1123 76.7937 85.2055 77.3772C73.7826 79.67 71.8491 68.1532 76.4597 66.2536Z" fill="url(#paint10_linear_659_1861)"/>
<path d="M83.2538 72.6222C83.6151 72.4136 83.908 71.9062 83.908 71.4889C83.908 70.3318 84.7234 68.9198 85.7254 68.3412C86.7273 67.7625 87.5428 68.2333 87.5428 69.3904C87.5428 69.8077 87.8358 69.9767 88.1974 69.768C88.5586 69.5594 88.8516 69.052 88.8516 68.6347C88.8516 66.6444 87.4491 65.8349 85.7255 66.8299C84.0016 67.8253 82.5994 70.2542 82.5994 72.2446C82.5994 72.6618 82.8923 72.8307 83.2538 72.6222Z" fill="#E2F1F7"/>
<path d="M92.5257 67.2689C92.8872 67.0603 93.1803 66.5525 93.1803 66.1352C93.1803 64.9782 93.9953 63.5662 94.9976 62.9874C95.9997 62.4091 96.815 62.8797 96.815 64.0368C96.815 64.4541 97.108 64.6234 97.4692 64.4147C97.8307 64.2061 98.1238 63.6987 98.1238 63.2814C98.1238 61.291 96.7213 60.4812 94.9974 61.4765C93.2738 62.4715 91.8716 64.9004 91.8716 66.8908C91.8715 67.3082 92.1644 67.4775 92.5257 67.2689Z" fill="#E2F1F7"/>
<path d="M63.3663 105.757C68.0466 105.757 71.8407 101.963 71.8407 97.283C71.8407 92.6027 68.0466 88.8086 63.3663 88.8086C58.686 88.8086 54.8918 92.6027 54.8918 97.283C54.8918 101.963 58.686 105.757 63.3663 105.757Z" fill="url(#paint11_radial_659_1861)"/>
<path d="M73.1812 129C76.8479 126.622 79.6482 135.243 94.8835 127.613C94.5924 129.282 94.416 130.283 94.416 130.283C94.3698 132.33 93.0041 134.37 90.3001 135.931C84.8254 139.091 75.949 139.091 70.4743 135.931C67.813 134.394 66.4494 132.393 66.3753 130.38C66.3701 130.38 66.3701 130.256 66.3701 130.256V128.961C68.8627 130.2 70.4017 130.802 73.1812 129Z" fill="url(#paint12_linear_659_1861)"/>
<path d="M93.1886 120.199C94.5011 119.954 95.7031 119.162 96.4284 117.917C97.7512 115.647 96.983 112.734 94.713 111.411L67.3342 95.4563C65.0637 94.1335 62.1507 94.9014 60.8276 97.1717C59.5049 99.442 60.2727 102.355 62.543 103.678L89.9219 119.633C90.9482 120.231 92.106 120.402 93.1886 120.199Z" fill="url(#paint13_linear_659_1861)"/>
<path d="M88.3087 117.822C89.0032 121.542 92.5819 123.994 96.3019 123.3C100.022 122.605 102.474 119.026 101.78 115.306C101.085 111.587 97.5065 109.134 93.7868 109.829C90.0667 110.523 87.6144 114.102 88.3087 117.822Z" fill="url(#paint14_radial_659_1861)"/>
<path d="M93.5308 111.224L100.782 98.6599C100.786 98.662 105.014 91.3374 105.014 91.3374C106.327 89.0617 109.237 88.2813 111.512 89.595C112.76 90.3146 113.557 91.5134 113.808 92.8248C114.014 93.9067 113.848 95.0653 113.255 96.0938L104.981 110.429C104.978 110.427 101.772 115.98 101.772 115.98C100.459 118.256 97.5491 119.036 95.2733 117.723C92.9975 116.409 92.2176 113.5 93.5308 111.224Z" fill="url(#paint15_linear_659_1861)"/>
<path d="M104.852 91.2591C105.546 94.9789 109.125 97.4316 112.844 96.7369C116.564 96.0424 119.017 92.4637 118.322 88.744C117.628 85.0239 114.049 82.5716 110.329 83.266C106.61 83.9606 104.157 87.539 104.852 91.2591Z" fill="url(#paint16_radial_659_1861)"/>
<path d="M115.586 81.5483C115.586 82.6137 116.45 83.4774 117.515 83.4774C118.581 83.4774 119.445 82.6137 119.445 81.5483C119.445 80.4829 118.581 79.6191 117.515 79.6191C116.45 79.6191 115.586 80.4829 115.586 81.5483Z" fill="url(#paint17_radial_659_1861)"/>
<path d="M113.188 81.9018C113.188 82.9675 114.052 83.8313 115.117 83.8313C116.182 83.8313 117.046 82.9675 117.046 81.9018C117.046 80.8364 116.182 79.9727 115.117 79.9727C114.052 79.9727 113.188 80.8364 113.188 81.9018Z" fill="url(#paint18_radial_659_1861)"/>
<path d="M119.82 90.5185C119.918 90.5262 120.017 90.5222 120.115 90.5058C120.435 90.4525 120.719 90.274 120.906 90.0097L123.198 86.7645C123.582 86.2196 123.454 85.4661 122.911 85.0786L117.464 81.1941C116.918 80.8054 116.162 80.9321 115.773 81.477C115.385 82.0219 115.511 82.7788 116.056 83.1674L120.522 86.3517L119.633 87.6105L117.132 85.8028C116.59 85.4106 115.832 85.5324 115.44 86.0751C115.048 86.6175 115.17 87.375 115.712 87.767L119.206 90.2925C119.388 90.4238 119.601 90.5012 119.82 90.5185Z" fill="url(#paint19_radial_659_1861)"/>
<path d="M112.625 84.9677C113.69 84.9677 114.554 84.104 114.554 83.0385C114.554 81.9731 113.69 81.1094 112.625 81.1094C111.56 81.1094 110.696 81.9731 110.696 83.0385C110.696 84.104 111.56 84.9677 112.625 84.9677Z" fill="url(#paint20_radial_659_1861)"/>
<path d="M117.329 91.6555C117.426 91.6631 117.525 91.6592 117.623 91.6427C117.943 91.5894 118.227 91.4106 118.414 91.1462L120.706 87.9012C121.09 87.3561 120.962 86.6025 120.419 86.2155L114.971 82.3307C114.426 81.9421 113.67 82.069 113.281 82.6139C112.892 83.1588 113.019 83.9157 113.564 84.3043L118.03 87.4886L117.141 88.7472L114.64 86.9395C114.098 86.5472 113.34 86.6694 112.948 87.2121C112.556 87.7545 112.678 88.512 113.22 88.904L116.714 91.4295C116.896 91.5608 117.109 91.6381 117.329 91.6555Z" fill="url(#paint21_radial_659_1861)"/>
<path d="M108.645 83.9213C108.645 84.9867 109.509 85.8505 110.574 85.8505C111.64 85.8505 112.504 84.9867 112.504 83.9213C112.504 82.856 111.64 81.9922 110.574 81.9922C109.509 81.9922 108.645 82.856 108.645 83.9213Z" fill="url(#paint22_radial_659_1861)"/>
<path d="M115.278 92.538C115.376 92.546 115.474 92.542 115.573 92.5255C115.892 92.4722 116.177 92.2935 116.363 92.029L118.655 88.7841C119.04 88.2388 118.912 87.4854 118.369 87.0983L112.921 83.2135C112.376 82.8249 111.619 82.9519 111.23 83.4966C110.842 84.0415 110.969 84.7984 111.514 85.187L115.979 88.3713L115.09 89.6298L112.589 87.8221C112.047 87.4298 111.289 87.5516 110.897 88.0944C110.505 88.6371 110.627 89.3947 111.169 89.7866L114.664 92.3121C114.845 92.4436 115.058 92.5206 115.278 92.538Z" fill="url(#paint23_radial_659_1861)"/>
<path d="M117.976 79.283L120.3 78.1588C120.371 78.124 120.446 78.0966 120.523 78.0774L124.033 77.1953C124.193 77.1551 124.357 77.1493 124.52 77.1783L129.901 78.132C130.208 78.1865 130.475 78.3571 130.654 78.6125C130.832 78.8678 130.901 79.1776 130.846 79.4845C130.792 79.7912 130.621 80.0586 130.366 80.2371C130.11 80.4159 129.801 80.4838 129.494 80.4296L124.359 79.5196L121.209 80.3112L118.993 81.3833C118.833 81.461 118.662 81.5002 118.485 81.5002C118.04 81.5002 117.628 81.2416 117.434 80.8415C117.154 80.2625 117.397 79.5631 117.976 79.283Z" fill="url(#paint24_radial_659_1861)"/>
<g opacity="0.7">
<path d="M8.15003 83.5914C8.07571 76.4467 11.3584 71.375 16.6269 66.5502C19.7268 63.9693 21.2009 63.0771 23.6558 61.6423L23.7829 61.5683L25.4123 60.6979L27.1265 59.86L28.766 59.1263L28.9124 59.0605L28.7799 76.2196C28.7778 76.2183 28.7778 76.2536 28.7778 76.2536C23.5666 78.5867 20.1438 80.5234 15.1333 84.0123C12.0206 86.3792 10.7727 87.3626 7.84037 90.3361C7.81286 87.6982 8.35799 83.3805 8.15003 83.5914Z" fill="#3685FC"/>
<path d="M0.931385 80.8648C1.19185 79.0532 1.06991 79.7255 1.46652 77.9157L1.89869 76.4506C2.77008 74.1106 2.87178 73.9726 3.83488 72.1793L4.70104 70.7862C6.34177 68.466 6.73837 67.939 9.17616 65.4665L10.5334 64.2236C14.3673 61.0322 17.833 58.6837 23.6555 56.0781L28.9122 59.0612L28.7529 59.1193L28.7656 59.127C22.838 61.7801 17.8961 64.7436 13.5507 69.6429C13.1989 70.0398 12.0095 71.513 11.5226 72.2963C9.96869 74.7956 9.18503 76.2911 8.40955 79.829C8.42569 79.7544 8.12841 81.5508 8.13761 82.402C8.17387 85.9046 8.67365 88.0007 10.2574 91.3321C11.0545 93.0091 12.9175 95.4554 13.5648 96.1653C24.4343 108.083 42.6134 112.193 58.6737 112.553L60.8931 112.545C72.7863 112.201 83.02 110.261 93.6217 105.079L93.7058 105.034L97.8376 108.544C75.6868 119.374 43.1119 120.002 19.1497 107.486C19.1988 107.511 16.6833 106.106 15.6116 105.375C11.2742 102.417 9.0265 100.495 5.93357 96.7094L4.93695 95.3395C3.45464 93.0299 2.70348 91.8682 1.56379 88.2313L1.21537 86.7593C0.927865 84.9828 0.858088 84.7562 0.83252 82.3324L0.931385 80.8648Z" fill="#83B8FC"/>
<path d="M1.56375 88.2312C2.90901 92.5241 4.30099 94.7112 7.0272 98.0478C12.3868 103.923 17.7649 107.119 25.0813 110.326C49.4767 120.097 78.1941 118.148 97.8377 108.544V125.628C81.1674 133.779 61.5206 135.293 43.398 132.556C32.5419 130.613 24.3479 127.911 15.6116 122.459C11.7015 119.793 9.29488 117.908 5.93364 113.794C2.85447 109.561 1.32613 106.408 0.848159 100.886C0.827477 98.9273 0.832591 101.646 0.832591 82.332C0.860206 84.9573 0.967026 85.7118 1.56375 88.2312Z" fill="#3685FC"/>
<path d="M63.3323 122.919C63.3895 122.923 63.4474 122.924 63.5059 122.923C74.7001 122.697 85.435 120.597 94.5506 116.85C95.5823 116.426 96.0747 115.245 95.6504 114.214C95.2265 113.182 94.0463 112.689 93.0144 113.113C84.3563 116.673 74.1242 118.668 63.4245 118.884C62.3092 118.906 61.4232 119.829 61.4457 120.944C61.4671 122.001 62.2964 122.852 63.3323 122.919Z" fill="#E2F1F7"/>
<path d="M47.2319 121.925C48.2731 121.992 49.2076 121.248 49.3593 120.198C49.5189 119.094 48.7531 118.069 47.6488 117.91C38.4757 116.585 29.8241 114.002 21.9339 110.233C20.9272 109.752 19.7214 110.178 19.2405 111.184C18.7596 112.191 19.1859 113.397 20.1922 113.878C28.451 117.823 37.4943 120.525 47.0716 121.908C47.1253 121.916 47.1789 121.921 47.2319 121.925Z" fill="#E2F1F7"/>
<path d="M0.832577 87.0234C0.880079 87.3387 0.935876 87.6829 1.00258 88.0781C1.9992 92.1381 3.13765 94.1739 5.45203 97.4173C7.74698 100.279 10.1065 102.59 12.8742 104.687C13.7639 105.36 13.9384 106.627 13.265 107.517C12.8392 108.078 12.1768 108.355 11.5225 108.313C11.1412 108.288 10.7626 108.155 10.4352 107.907C7.38038 105.593 4.78394 103.048 2.26353 99.8982C2.24069 99.8696 2.21841 99.8404 2.19716 99.8105C1.70158 99.1167 1.24907 98.4625 0.832352 97.8241C0.83167 96.1307 0.832236 93.0451 0.832577 87.0234Z" fill="#E2F1F7"/>
<path d="M81.2394 128.601C81.4188 128.611 81.6025 128.598 81.7864 128.558C86.5823 127.519 91.1294 126.107 95.3018 124.362C96.3309 123.932 96.8164 122.749 96.3857 121.72C95.9557 120.69 94.7724 120.205 93.7429 120.635C89.7975 122.286 85.4869 123.623 80.9314 124.609C79.841 124.846 79.1488 125.921 79.3848 127.011C79.581 127.917 80.3571 128.549 81.2394 128.601Z" fill="#E2F1F7"/>
<path d="M55.8059 130.488C62.5921 130.887 69.3379 130.597 75.9298 129.62C77.0336 129.457 77.7957 128.43 77.632 127.327C77.4687 126.223 76.4421 125.461 75.338 125.625C67.2732 126.819 58.9615 126.941 50.6345 125.988C46.3601 125.498 42.1168 124.72 38.0231 123.674C36.9403 123.399 35.8423 124.051 35.5664 125.132C35.2905 126.213 35.9429 127.313 37.0239 127.589C41.2945 128.679 45.7191 129.49 50.175 130.001C52.0529 130.216 53.9316 130.379 55.8059 130.488Z" fill="#E2F1F7"/>
<path d="M29.4517 125.23C30.3254 125.281 31.1646 124.756 31.4722 123.889C31.8456 122.838 31.2964 121.683 30.2451 121.309C27.6554 120.389 25.1088 119.343 22.6756 118.2C16.0673 114.826 10.9791 111.51 6.05259 105.428C5.3503 104.561 4.07867 104.428 3.2116 105.13C2.34476 105.833 2.21135 107.104 2.91376 107.971C8.29709 114.616 13.7747 118.194 20.8689 121.813C20.8881 121.823 20.9073 121.833 20.9271 121.842C23.4882 123.047 26.1685 124.148 28.8929 125.116C29.0773 125.182 29.2652 125.219 29.4517 125.23Z" fill="#E2F1F7"/>
</g>
<path d="M131.182 47.777L137.684 45.8442L140.654 42.2908C141.025 41.8474 140.966 41.1867 140.523 40.8161C140.079 40.4452 139.418 40.504 139.048 40.9477L136.482 44.0166L130.934 45.6662L125.144 45.3506C124.565 45.3187 124.073 45.7615 124.041 46.3389C124.01 46.9164 124.453 47.4101 125.03 47.4414L131.182 47.777Z" fill="#BDDFF4"/>
<path d="M124.652 44.0773C124.659 44.0773 124.666 44.0773 124.673 44.0769L130.546 43.963L135.826 40.7589L138.617 36.3731C138.928 35.8851 138.784 35.2379 138.296 34.9276C137.808 34.6169 137.161 34.761 136.85 35.2486L134.322 39.222L129.941 41.8801L124.632 41.9834C124.054 41.9943 123.594 42.4722 123.605 43.0506C123.617 43.6216 124.083 44.0773 124.652 44.0773Z" fill="#BDDFF4"/>
<path d="M122.318 41.7424C122.425 41.7424 122.533 41.7263 122.64 41.6918L127.915 39.9902L131.48 36.604L134.167 31.1719C134.424 30.6535 134.212 30.0255 133.693 29.769C133.175 29.5125 132.547 29.7248 132.29 30.2432L129.767 35.3418L126.818 38.1432L121.997 39.6984C121.447 39.8762 121.144 40.4662 121.322 41.0166C121.465 41.46 121.876 41.7424 122.318 41.7424Z" fill="#BDDFF4"/>
<path d="M119.171 40.4403C119.343 40.4403 119.518 40.3979 119.679 40.3083L125.32 37.1746L128.037 32.1525L128.991 27.3288C129.103 26.7613 128.734 26.2104 128.167 26.0983C127.6 25.9859 127.049 26.3553 126.936 26.9224L126.044 31.4349L123.768 35.6405L118.662 38.4776C118.156 38.7584 117.974 39.3959 118.255 39.9015C118.446 40.2458 118.803 40.4403 119.171 40.4403Z" fill="#BDDFF4"/>
<path d="M110.618 47.7727C111.313 51.4927 114.891 53.9452 118.611 53.2507C122.331 52.556 124.784 48.9775 124.089 45.2575C123.395 41.5378 119.816 39.0851 116.096 39.7798C112.376 40.4742 109.924 44.053 110.618 47.7727Z" fill="url(#paint25_radial_659_1861)"/>
<path d="M109.075 44.9096C109.075 45.975 109.939 46.8388 111.004 46.8388C112.07 46.8388 112.934 45.975 112.934 44.9096C112.934 43.8442 112.07 42.9805 111.004 42.9805C109.939 42.9805 109.075 43.8442 109.075 44.9096Z" fill="url(#paint26_radial_659_1861)"/>
<path d="M123.24 45.0749C122.451 45.7909 122.392 47.0107 123.108 47.7998C123.824 48.5887 125.043 48.648 125.833 47.932C126.621 47.216 126.681 45.9958 125.965 45.2067C125.249 44.4179 124.029 44.3588 123.24 45.0749Z" fill="url(#paint27_radial_659_1861)"/>
<path d="M122.455 42.2331C121.666 42.9491 121.607 44.1692 122.323 44.958C123.039 45.7471 124.259 45.8062 125.048 45.0902C125.837 44.3741 125.896 43.154 125.18 42.3652C124.464 41.5761 123.244 41.517 122.455 42.2331Z" fill="url(#paint28_radial_659_1861)"/>
<path d="M120.86 39.8033C120.071 40.5194 120.012 41.7395 120.728 42.5286C121.444 43.3175 122.664 43.3765 123.453 42.6606C124.242 41.9445 124.301 40.7247 123.585 39.9356C122.869 39.1465 121.649 39.0873 120.86 39.8033Z" fill="url(#paint29_radial_659_1861)"/>
<path d="M117.99 38.4595C117.201 39.1756 117.142 40.3957 117.858 41.1848C118.574 41.9737 119.794 42.0327 120.583 41.3168C121.372 40.6007 121.431 39.3809 120.715 38.5918C119.999 37.8028 118.779 37.7435 117.99 38.4595Z" fill="url(#paint30_radial_659_1861)"/>
<path d="M110.817 45.866C111.166 45.6885 111.402 45.3206 111.39 44.9024C111.374 44.3246 110.892 43.8689 110.314 43.8851L103.534 44.0742L95.4447 40.0474C94.927 39.7898 94.2983 40.0003 94.0406 40.5183C93.783 41.036 93.9936 41.6647 94.5115 41.9223L102.835 46.0657C102.989 46.1422 103.159 46.1796 103.331 46.175L110.372 45.9783C110.532 45.9742 110.683 45.9339 110.817 45.866Z" fill="#BDDFF4"/>
<path d="M105.095 9.79735L119.346 1.56973C122.377 -0.180317 125.147 -0.416346 127.217 0.609478L127.257 0.586069L135.688 5.45336L135.668 5.4653C137.647 6.72533 138.867 9.26574 138.867 12.8235C138.867 20.1816 133.653 29.2119 127.281 32.8907L113.03 41.1181C109.642 43.0741 106.582 43.1386 104.459 41.6645L97.4656 37.6271C95.044 36.5687 93.5093 33.8565 93.5093 29.8648C93.5088 22.5066 98.7225 13.4763 105.095 9.79735Z" fill="#BDDFF4"/>
<path d="M113.03 41.1185L127.281 32.8912C133.653 29.2122 138.867 20.1819 138.867 12.8239C138.867 5.46572 133.653 2.45564 127.28 6.1346L113.029 14.362C106.657 18.041 101.444 27.0711 101.444 34.4293C101.444 41.7874 106.658 44.7975 113.03 41.1185Z" fill="#E2F1F7"/>
<path d="M114.904 24.5005L125.739 18.2448C126.957 17.5419 127.953 15.8165 127.953 14.4103C127.953 13.0043 126.957 12.4291 125.739 13.132L114.904 19.3875C113.686 20.0905 112.69 21.8158 112.69 23.222C112.69 24.6281 113.686 25.2034 114.904 24.5005Z" fill="#90CAF4"/>
<path d="M131.047 10.0675L131.164 9.99984L131.192 9.98336L131.218 9.9687C132.424 9.28913 133.406 9.8654 133.406 11.2616C133.406 12.6578 132.424 14.3685 131.218 15.0805C131.218 15.0815 131.192 15.0961 131.192 15.0961L131.164 15.1126L131.047 15.1799C129.83 15.8828 128.833 15.3078 128.833 13.9019C128.833 12.4959 129.83 10.7705 131.047 10.0675Z" fill="#90CAF4"/>
<path d="M109.118 29.2664L109.235 29.1988L109.263 29.1827L109.289 29.1678C110.494 28.4884 111.477 29.0648 111.477 30.4607C111.477 31.8569 110.494 33.5676 109.289 34.28C109.289 34.2806 109.263 34.2952 109.263 34.2952L109.235 34.3117L109.118 34.3793C107.9 35.0823 106.904 34.5069 106.904 33.1011C106.904 31.695 107.9 29.9693 109.118 29.2664Z" fill="#2030A5"/>
<path d="M114.904 31.0392L125.739 24.7839C126.957 24.0809 127.953 22.3553 127.953 20.9494C127.953 19.5434 126.957 18.9682 125.739 19.671L114.904 25.9267C113.686 26.6296 112.69 28.355 112.69 29.7612C112.691 31.1672 113.687 31.7422 114.904 31.0392Z" fill="#2030A5"/>
<path d="M114.904 37.2659L125.739 31.0102C126.957 30.3073 127.953 28.5819 127.953 27.1757C127.953 25.7698 126.957 25.1947 125.739 25.8977L114.904 32.153C113.687 32.856 112.69 34.5816 112.69 35.9875C112.69 37.3935 113.687 37.9688 114.904 37.2659Z" fill="#2030A5"/>
<defs>
<radialGradient id="paint0_radial_659_1861" cx="0" cy="0" r="1" gradientUnits="userSpaceOnUse" gradientTransform="translate(111.386 82.0724) rotate(119.736) scale(15.4607 15.4607)">
<stop stop-color="#2C65D6"/>
<stop offset="0.9932" stop-color="#2030A5"/>
</radialGradient>
<radialGradient id="paint1_radial_659_1861" cx="0" cy="0" r="1" gradientUnits="userSpaceOnUse" gradientTransform="translate(130.42 72.7505) rotate(139.99) scale(21.5504)">
<stop stop-color="#2C65D6"/>
<stop offset="0.9932" stop-color="#2030A5"/>
</radialGradient>
<radialGradient id="paint2_radial_659_1861" cx="0" cy="0" r="1" gradientUnits="userSpaceOnUse" gradientTransform="translate(123.522 64.3677) rotate(9.29372) scale(15.4608 15.4608)">
<stop stop-color="#2C65D6"/>
<stop offset="0.9932" stop-color="#2030A5"/>
</radialGradient>
<radialGradient id="paint3_radial_659_1861" cx="0" cy="0" r="1" gradientUnits="userSpaceOnUse" gradientTransform="translate(102.483 76.7304) rotate(180) scale(21.5505 21.5505)">
<stop stop-color="#2C65D6"/>
<stop offset="0.9932" stop-color="#2030A5"/>
</radialGradient>
<radialGradient id="paint4_radial_659_1861" cx="0" cy="0" r="1" gradientUnits="userSpaceOnUse" gradientTransform="translate(97.315 96.798) rotate(180) scale(49.2759 49.2759)">
<stop offset="0.0068" stop-color="#BDDFF4"/>
<stop offset="1" stop-color="#90CAF4"/>
</radialGradient>
<linearGradient id="paint5_linear_659_1861" x1="74.3741" y1="78.7017" x2="88.6203" y2="78.833" gradientUnits="userSpaceOnUse">
<stop offset="0.0171" stop-color="#2030A5"/>
<stop offset="0.9829" stop-color="#2C65D6"/>
</linearGradient>
<linearGradient id="paint6_linear_659_1861" x1="82.8674" y1="41.6911" x2="87.5529" y2="41.4903" gradientUnits="userSpaceOnUse">
<stop offset="0.0171" stop-color="#2030A5"/>
<stop offset="0.9829" stop-color="#2C65D6"/>
</linearGradient>
<radialGradient id="paint7_radial_659_1861" cx="0" cy="0" r="1" gradientUnits="userSpaceOnUse" gradientTransform="translate(90.5342 55.4019) rotate(180) scale(42.7876 42.7876)">
<stop offset="0.0068" stop-color="#BDDFF4"/>
<stop offset="1" stop-color="#90CAF4"/>
</radialGradient>
<radialGradient id="paint8_radial_659_1861" cx="0" cy="0" r="1" gradientUnits="userSpaceOnUse" gradientTransform="translate(68.8647 59.0958) rotate(180) scale(18.4178 18.4178)">
<stop offset="0.0068" stop-color="#BDDFF4"/>
<stop offset="1" stop-color="#90CAF4"/>
</radialGradient>
<linearGradient id="paint9_linear_659_1861" x1="63.8671" y1="50.3337" x2="68.5527" y2="50.1329" gradientUnits="userSpaceOnUse">
<stop offset="0.0171" stop-color="#2030A5"/>
<stop offset="0.9829" stop-color="#2C65D6"/>
</linearGradient>
<linearGradient id="paint10_linear_659_1861" x1="79.4166" y1="74.5155" x2="94.1543" y2="62.5288" gradientUnits="userSpaceOnUse">
<stop offset="0.0171" stop-color="#2030A5"/>
<stop offset="0.9829" stop-color="#2C65D6"/>
</linearGradient>
<radialGradient id="paint11_radial_659_1861" cx="0" cy="0" r="1" gradientUnits="userSpaceOnUse" gradientTransform="translate(71.3027 89.8847) rotate(180) scale(21.5501 21.5501)">
<stop stop-color="#2C65D6"/>
<stop offset="0.9932" stop-color="#2030A5"/>
</radialGradient>
<linearGradient id="paint12_linear_659_1861" x1="94.8835" y1="132.957" x2="66.3701" y2="132.957" gradientUnits="userSpaceOnUse">
<stop offset="0.0171" stop-color="#2030A5"/>
<stop offset="0.9829" stop-color="#2C65D6"/>
</linearGradient>
<linearGradient id="paint13_linear_659_1861" x1="95.0945" y1="104.471" x2="62.1615" y2="110.618" gradientUnits="userSpaceOnUse">
<stop offset="0.0171" stop-color="#2030A5"/>
<stop offset="0.9829" stop-color="#2C65D6"/>
</linearGradient>
<radialGradient id="paint14_radial_659_1861" cx="0" cy="0" r="1" gradientUnits="userSpaceOnUse" gradientTransform="translate(99.7076 108.19) rotate(169.426) scale(20.8075 20.8075)">
<stop stop-color="#2C65D6"/>
<stop offset="0.9932" stop-color="#2030A5"/>
</radialGradient>
<linearGradient id="paint15_linear_659_1861" x1="115.412" y1="101.415" x2="91.3742" y2="105.902" gradientUnits="userSpaceOnUse">
<stop offset="0.0171" stop-color="#2030A5"/>
<stop offset="0.9829" stop-color="#2C65D6"/>
</linearGradient>
<radialGradient id="paint16_radial_659_1861" cx="0" cy="0" r="1" gradientUnits="userSpaceOnUse" gradientTransform="translate(116.797 82.9436) rotate(169.426) scale(17.424)">
<stop stop-color="#2C65D6"/>
<stop offset="0.9932" stop-color="#2030A5"/>
</radialGradient>
<radialGradient id="paint17_radial_659_1861" cx="0" cy="0" r="1" gradientUnits="userSpaceOnUse" gradientTransform="translate(118.519 80.4834) rotate(180) scale(3.98779 3.98778)">
<stop stop-color="#2C65D6"/>
<stop offset="0.9932" stop-color="#2030A5"/>
</radialGradient>
<radialGradient id="paint18_radial_659_1861" cx="0" cy="0" r="1" gradientUnits="userSpaceOnUse" gradientTransform="translate(116.12 80.8369) rotate(180) scale(3.9878 3.9878)">
<stop stop-color="#2C65D6"/>
<stop offset="0.9932" stop-color="#2030A5"/>
</radialGradient>
<radialGradient id="paint19_radial_659_1861" cx="0" cy="0" r="1" gradientUnits="userSpaceOnUse" gradientTransform="translate(124.11 85.643) rotate(180) scale(8.53432 8.53432)">
<stop stop-color="#BDDFF4"/>
<stop offset="0.9966" stop-color="#90CAF4"/>
</radialGradient>
<radialGradient id="paint20_radial_659_1861" cx="0" cy="0" r="1" gradientUnits="userSpaceOnUse" gradientTransform="translate(113.628 81.9736) rotate(180) scale(3.98761 3.98763)">
<stop stop-color="#2C65D6"/>
<stop offset="0.9932" stop-color="#2030A5"/>
</radialGradient>
<radialGradient id="paint21_radial_659_1861" cx="0" cy="0" r="1" gradientUnits="userSpaceOnUse" gradientTransform="translate(119.986 86.6235) rotate(180) scale(6.92656)">
<stop stop-color="#BDDFF4"/>
<stop offset="0.9966" stop-color="#90CAF4"/>
</radialGradient>
<radialGradient id="paint22_radial_659_1861" cx="0" cy="0" r="1" gradientUnits="userSpaceOnUse" gradientTransform="translate(111.578 82.8564) rotate(180) scale(3.98765 3.98764)">
<stop stop-color="#2C65D6"/>
<stop offset="0.9932" stop-color="#2030A5"/>
</radialGradient>
<radialGradient id="paint23_radial_659_1861" cx="0" cy="0" r="1" gradientUnits="userSpaceOnUse" gradientTransform="translate(118.697 87.5509) rotate(180) scale(10.5315 10.5315)">
<stop stop-color="#BDDFF4"/>
<stop offset="0.9966" stop-color="#90CAF4"/>
</radialGradient>
<radialGradient id="paint24_radial_659_1861" cx="0" cy="0" r="1" gradientUnits="userSpaceOnUse" gradientTransform="translate(130.842 78.419) rotate(180) scale(14.1148 14.1148)">
<stop stop-color="#BDDFF4"/>
<stop offset="0.9966" stop-color="#90CAF4"/>
</radialGradient>
<radialGradient id="paint25_radial_659_1861" cx="0" cy="0" r="1" gradientUnits="userSpaceOnUse" gradientTransform="translate(122.564 39.4576) rotate(169.426) scale(17.424 17.424)">
<stop stop-color="#2C65D6"/>
<stop offset="0.9932" stop-color="#2030A5"/>
</radialGradient>
<radialGradient id="paint26_radial_659_1861" cx="0" cy="0" r="1" gradientUnits="userSpaceOnUse" gradientTransform="translate(112.007 43.8447) rotate(180) scale(3.98778 3.98779)">
<stop stop-color="#2C65D6"/>
<stop offset="0.9932" stop-color="#2030A5"/>
</radialGradient>
<radialGradient id="paint27_radial_659_1861" cx="0" cy="0" r="1" gradientUnits="userSpaceOnUse" gradientTransform="translate(125.999 46.5306) rotate(-132.224) scale(3.98779)">
<stop stop-color="#2C65D6"/>
<stop offset="0.9932" stop-color="#2030A5"/>
</radialGradient>
<radialGradient id="paint28_radial_659_1861" cx="0" cy="0" r="1" gradientUnits="userSpaceOnUse" gradientTransform="translate(125.214 43.689) rotate(-132.224) scale(3.98769)">
<stop stop-color="#2C65D6"/>
<stop offset="0.9932" stop-color="#2030A5"/>
</radialGradient>
<radialGradient id="paint29_radial_659_1861" cx="0" cy="0" r="1" gradientUnits="userSpaceOnUse" gradientTransform="translate(123.619 41.2592) rotate(-132.224) scale(3.98767)">
<stop stop-color="#2C65D6"/>
<stop offset="0.9932" stop-color="#2030A5"/>
</radialGradient>
<radialGradient id="paint30_radial_659_1861" cx="0" cy="0" r="1" gradientUnits="userSpaceOnUse" gradientTransform="translate(120.749 39.9155) rotate(-132.224) scale(3.9878)">
<stop stop-color="#2C65D6"/>
<stop offset="0.9932" stop-color="#2030A5"/>
</radialGradient>
</defs>
</svg>
