<svg width="60" height="61" viewBox="0 0 60 61" fill="none" xmlns="http://www.w3.org/2000/svg">
<path fill-rule="evenodd" clip-rule="evenodd" d="M32.1244 59.6199C30.9512 60.7934 29.049 60.7934 27.8757 59.6199L0.879918 32.6244C-0.293306 31.4511 -0.293306 29.549 0.879918 28.3757L27.8757 1.37991C29.049 0.206696 30.9512 0.206696 32.1244 1.37991L59.1199 28.3757C60.2934 29.549 60.2934 31.4511 59.1199 32.6244L32.1244 59.6199ZM22.7898 25.1591C23.4535 25.1591 23.9915 25.6971 23.9915 26.3608V34.4321C23.9915 36.2386 21.6296 36.9221 20.6649 35.3946L16.7812 29.2455V35.2401C16.7812 35.9038 16.2432 36.4419 15.5795 36.4419C14.9158 36.4419 14.3778 35.9038 14.3778 35.2401V27.1689C14.3778 25.3623 16.7397 24.6789 17.7045 26.2063L21.5881 32.3555V26.3608C21.5881 25.6971 22.1261 25.1591 22.7898 25.1591ZM29.3992 25.0924C28.4037 25.0924 27.5966 25.8994 27.5966 26.8949V35.3069C27.5966 35.9706 28.1346 36.5086 28.7984 36.5086C29.4621 36.5086 30.0001 35.9706 30.0001 35.3069V32.6031H32.4035C33.0672 32.6031 33.6052 32.065 33.6052 31.4013C33.6052 30.7376 33.0672 30.1996 32.4035 30.1996H30.0001V27.4958H33.9056C34.5693 27.4958 35.1073 26.9578 35.1073 26.2941C35.1073 25.6304 34.5693 25.0924 33.9056 25.0924H29.3992ZM42.3176 36.5086C41.6539 36.5086 41.1159 35.9706 41.1159 35.3069V27.4958H39.6137C38.95 27.4958 38.412 26.9578 38.412 26.2941C38.412 25.6304 38.95 25.0924 39.6137 25.0924H45.0214C45.6851 25.0924 46.2232 25.6304 46.2232 26.2941C46.2232 26.9578 45.6851 27.4958 45.0214 27.4958H43.5193V35.3069C43.5193 35.9706 42.9813 36.5086 42.3176 36.5086Z" fill="#15BFFD"/>
<path d="M49.8278 53.3321H41.8105L52.8321 42.3105V50.3278C52.8321 51.987 51.487 53.3321 49.8278 53.3321Z" fill="#15BFFD"/>
<path d="M52.8322 10.6722V18.6896L41.8105 7.66797H49.8279C51.4871 7.66797 52.8322 9.01304 52.8322 10.6722Z" fill="#15BFFD"/>
<path d="M10.1722 7.66699H18.1895L7.16797 18.6886V10.6713C7.16797 9.01207 8.51304 7.66699 10.1722 7.66699Z" fill="#15BFFD"/>
<path d="M7.16797 50.3278V42.3105L18.1895 53.3321H10.1722C8.51304 53.3321 7.16797 51.987 7.16797 50.3278Z" fill="#15BFFD"/>
</svg>
