<svg width="71" height="61" viewBox="0 0 71 61" fill="none" xmlns="http://www.w3.org/2000/svg">
<path d="M60.5209 32.8926H55.0508C55.6083 34.4191 55.913 36.0665 55.913 37.7836V58.4573C55.913 59.1732 55.7884 59.8604 55.5617 60.4994H64.6049C67.9831 60.4994 70.7312 57.7511 70.7312 54.3731V43.1029C70.7314 37.473 66.1509 32.8926 60.5209 32.8926Z" fill="#15BFFD"/>
<path d="M14.8184 37.7836C14.8184 36.0664 15.123 34.4191 15.6806 32.8926H10.2105C4.58042 32.8926 0 37.473 0 43.1031V54.3733C0 57.7513 2.74817 60.4996 6.12629 60.4996H15.1697C14.943 59.8602 14.8184 59.1732 14.8184 58.4573V37.7836Z" fill="#15BFFD"/>
<path d="M41.6182 27.5732H29.1128C23.4828 27.5732 18.9023 32.1537 18.9023 37.7837V58.4575C18.9023 59.5852 19.8166 60.4996 20.9444 60.4996H49.7866C50.9145 60.4996 51.8287 59.5854 51.8287 58.4575V37.7837C51.8287 32.1537 47.2483 27.5732 41.6182 27.5732Z" fill="#15BFFD"/>
<path d="M35.3658 0.5C28.5949 0.5 23.0864 6.0085 23.0864 12.7795C23.0864 17.3722 25.6213 21.3834 29.3648 23.4893C31.1404 24.4881 33.1875 25.0589 35.3658 25.0589C37.5441 25.0589 39.5912 24.4881 41.3668 23.4893C45.1105 21.3834 47.6452 17.3721 47.6452 12.7795C47.6452 6.00863 42.1367 0.5 35.3658 0.5Z" fill="#15BFFD"/>
<path d="M13.803 11.9453C8.73919 11.9453 4.61963 16.0649 4.61963 21.1287C4.61963 26.1925 8.73919 30.312 13.803 30.312C15.0875 30.312 16.3106 30.046 17.4218 29.5677C19.3428 28.7406 20.9269 27.2765 21.907 25.4426C22.595 24.1555 22.9864 22.6871 22.9864 21.1287C22.9864 16.065 18.8668 11.9453 13.803 11.9453Z" fill="#15BFFD"/>
<path d="M56.928 11.9453C51.8642 11.9453 47.7446 16.0649 47.7446 21.1287C47.7446 22.6873 48.136 24.1556 48.824 25.4426C49.8041 27.2767 51.3881 28.7407 53.3092 29.5677C54.4203 30.046 55.6435 30.312 56.928 30.312C61.9918 30.312 66.1114 26.1925 66.1114 21.1287C66.1114 16.0649 61.9918 11.9453 56.928 11.9453Z" fill="#15BFFD"/>
</svg>
