<svg width="61" height="61" viewBox="0 0 61 61" fill="none" xmlns="http://www.w3.org/2000/svg">
<path d="M30.4912 0.5C24.5578 0.5 18.7576 2.25947 13.8241 5.55591C8.89064 8.85235 5.04547 13.5377 2.77484 19.0195C0.50421 24.5013 -0.0898905 30.5333 1.06767 36.3527C2.22522 42.1721 5.08244 47.5176 9.27802 51.7132C13.4736 55.9088 18.8191 58.766 24.6385 59.9235C30.4579 61.0811 36.4899 60.487 41.9717 58.2164C47.4535 55.9457 52.1389 52.1006 55.4353 47.1671C58.7317 42.2336 60.4912 36.4334 60.4912 30.5C60.4822 22.5463 57.3186 14.9209 51.6945 9.29673C46.0703 3.67259 38.445 0.508999 30.4912 0.5ZM22.2832 3.73L22.8002 5.662C21.2697 6.13835 19.787 6.75636 18.3712 7.508L17.3712 5.774C18.9395 4.9373 20.5843 4.25284 22.2832 3.73ZM5.76522 17.379L7.49922 18.379C6.74759 19.7948 6.12958 21.2775 5.65322 22.808L3.72122 22.292C4.24401 20.5928 4.92847 18.9476 5.76522 17.379ZM3.20922 24.225L5.14122 24.742C4.78652 26.3053 4.57729 27.8981 4.51622 29.5H2.51622C2.57888 27.7236 2.81093 25.9573 3.20922 24.225ZM2.51622 31.5H4.51622C4.57729 33.1019 4.78652 34.6947 5.14122 36.258L3.20922 36.775C2.81093 35.0427 2.57888 33.2764 2.51622 31.5ZM3.72122 38.708L5.65322 38.191C6.12958 39.7215 6.74759 41.2042 7.49922 42.62L5.76522 43.62C4.92853 42.0517 4.24407 40.4069 3.72122 38.708ZM10.0112 49.566C8.80031 48.2661 7.71513 46.8544 6.77022 45.35L8.50322 44.35C9.3586 45.7036 10.3367 46.9756 11.4252 48.15L10.0112 49.566ZM8.50322 16.65L6.77022 15.65C7.71513 14.1456 8.80031 12.7339 10.0112 11.434L11.4252 12.848C10.3366 14.023 9.35849 15.2957 8.50322 16.65ZM15.6412 54.221C14.1368 53.2761 12.7252 52.1909 11.4252 50.98L12.8392 49.566C14.0136 50.6545 15.2856 51.6326 16.6392 52.488L15.6412 54.221ZM12.8412 11.434L11.4252 10.02C12.7252 8.80908 14.1368 7.72391 15.6412 6.779L16.6412 8.512C15.2869 9.36727 14.0142 10.3454 12.8392 11.434H12.8412ZM22.2832 57.27C20.584 56.7472 18.9388 56.0627 17.3702 55.226L18.3702 53.492C19.786 54.2436 21.2687 54.8616 22.7992 55.338L22.2832 57.27ZM29.4912 58.475C27.7148 58.4123 25.9485 58.1803 24.2162 57.782L24.7332 55.85C26.2965 56.2047 27.8893 56.4139 29.4912 56.475V58.475ZM29.4912 49.5L19.4912 34.5L29.4912 40.864V49.5ZM29.4912 38.136L19.4912 31.773L29.4912 11.5V38.136ZM29.4912 4.525C27.8893 4.58607 26.2965 4.79529 24.7332 5.15L24.2162 3.218C25.9485 2.81971 27.7148 2.58766 29.4912 2.525V4.525ZM58.4662 29.5H56.4662C56.4051 27.8981 56.1959 26.3053 55.8412 24.742L57.7732 24.225C58.1715 25.9573 58.4036 27.7236 58.4662 29.5ZM57.2662 22.292L55.3342 22.809C54.8579 21.2785 54.2399 19.7958 53.4882 18.38L55.2222 17.38C56.0572 18.9485 56.74 20.5933 57.2612 22.292H57.2662ZM50.9712 11.434C52.1821 12.7339 53.2673 14.1456 54.2122 15.65L52.4792 16.65C51.6238 15.2964 50.6457 14.0244 49.5572 12.85L50.9712 11.434ZM31.4912 2.525C33.2676 2.58766 35.0339 2.81971 36.7662 3.218L36.2492 5.15C34.6859 4.79529 33.0931 4.58607 31.4912 4.525V2.525ZM31.4912 11.5L41.4912 31.773L31.4912 38.136V11.5ZM31.4912 40.864L41.4912 34.5L31.4912 49.5V40.864ZM31.4912 58.475V56.475C33.0931 56.4139 34.6859 56.2047 36.2492 55.85L36.7662 57.782C35.0339 58.1803 33.2676 58.4123 31.4912 58.475ZM38.6992 57.275L38.1822 55.343C39.7127 54.8666 41.1955 54.2486 42.6112 53.497L43.6112 55.231C42.0428 56.066 40.3979 56.7488 38.6992 57.27V57.275ZM42.6112 7.508C41.1955 6.75636 39.7127 6.13835 38.1822 5.662L38.6992 3.73C40.3984 4.25278 42.0436 4.93724 43.6122 5.774L42.6112 7.508ZM45.3412 54.221L44.3412 52.488C45.6948 51.6326 46.9669 50.6545 48.1412 49.566L49.5552 50.98C48.2559 52.1908 46.845 53.276 45.3412 54.221ZM48.1412 11.434C46.9669 10.3455 45.6948 9.36737 44.3412 8.512L45.3412 6.779C46.8456 7.72391 48.2573 8.80908 49.5572 10.02L48.1412 11.434ZM50.9712 49.566L49.5572 48.152C50.6457 46.9776 51.6238 45.7056 52.4792 44.352L54.2122 45.352C53.2672 46.8557 52.182 48.2667 50.9712 49.566ZM55.2172 43.621L53.4832 42.621C54.2349 41.2052 54.8529 39.7225 55.3292 38.192L57.2612 38.709C56.7384 40.4079 56.0539 42.0527 55.2172 43.621ZM57.7732 36.775L55.8412 36.258C56.1959 34.6947 56.4051 33.1019 56.4662 31.5H58.4662C58.4036 33.2764 58.1715 35.0427 57.7732 36.775Z" fill="#15BFFD"/>
</svg>
