<svg width="21" height="23" viewBox="0 0 21 23" fill="none" xmlns="http://www.w3.org/2000/svg">
<path d="M19.5049 11.6299C19.1732 11.6309 18.8512 11.7419 18.5893 11.9455C18.3273 12.1491 18.1403 12.4337 18.0574 12.7549H16.5049V9.75487H18.0574C18.1486 10.1084 18.3657 10.4164 18.6679 10.6213C18.97 10.8262 19.3366 10.9139 19.6987 10.8679C20.0609 10.8219 20.3939 10.6454 20.6352 10.3715C20.8766 10.0975 21.0097 9.74496 21.0097 9.37987C21.0097 9.01478 20.8766 8.66222 20.6352 8.38828C20.3939 8.11434 20.0609 7.93783 19.6987 7.89182C19.3366 7.84582 18.97 7.93349 18.6679 8.13839C18.3657 8.3433 18.1486 8.65137 18.0574 9.00487H16.5049V8.65612C16.503 8.32515 16.4135 8.00058 16.2455 7.71539C16.0776 7.43019 15.8371 7.19454 15.5486 7.03237L14.2549 6.31612V4.65862L15.0049 3.90862C15.3245 4.09493 15.7011 4.1582 16.064 4.08654C16.4269 4.01487 16.7512 3.81321 16.976 3.51941C17.2008 3.2256 17.3106 2.85985 17.2848 2.49082C17.2591 2.12178 17.0995 1.77483 16.8361 1.5151C16.5727 1.25537 16.2235 1.10071 15.8542 1.08015C15.4848 1.0596 15.1206 1.17456 14.83 1.40346C14.5394 1.63236 14.3423 1.95946 14.2758 2.32336C14.2093 2.68726 14.2778 3.06294 14.4686 3.37987L13.6136 4.23112C13.578 4.26705 13.5499 4.30982 13.5312 4.35687C13.5125 4.40392 13.5036 4.45426 13.5049 4.50487V5.89987L11.4049 4.73737C11.2406 4.64734 11.0636 4.58285 10.8799 4.54612V2.95237C11.2334 2.8611 11.5414 2.64403 11.7463 2.34187C11.9512 2.0397 12.0389 1.67317 11.9929 1.31099C11.9469 0.948813 11.7704 0.615844 11.4965 0.374498C11.2225 0.133152 10.87 0 10.5049 0C10.1398 0 9.78722 0.133152 9.51328 0.374498C9.23934 0.615844 9.06283 0.948813 9.01682 1.31099C8.97082 1.67317 9.05849 2.0397 9.26339 2.34187C9.4683 2.64403 9.77637 2.8611 10.1299 2.95237V4.54612C9.94617 4.58285 9.76914 4.64734 9.60487 4.73737L7.50487 5.89987V4.50487C7.50515 4.45552 7.49569 4.40659 7.47703 4.3609C7.45837 4.31521 7.43087 4.27366 7.39612 4.23862L6.54112 3.37987C6.72899 3.06146 6.79427 2.68547 6.72472 2.32237C6.65517 1.95927 6.45556 1.63401 6.16333 1.40757C5.8711 1.18112 5.5063 1.06905 5.13734 1.09236C4.76838 1.11566 4.42058 1.27275 4.15917 1.53417C3.89775 1.79558 3.74066 2.14338 3.71736 2.51234C3.69405 2.8813 3.80612 3.2461 4.03257 3.53833C4.25901 3.83056 4.58427 4.03017 4.94737 4.09972C5.31047 4.16927 5.68646 4.10399 6.00487 3.91612L6.75487 4.66612V6.32362L5.46112 7.03987C5.1737 7.20141 4.93395 7.43589 4.76606 7.71965C4.59818 8.00341 4.50808 8.32643 4.50487 8.65612V9.00487H2.95237C2.8611 8.65137 2.64403 8.3433 2.34187 8.13839C2.0397 7.93349 1.67317 7.84582 1.31099 7.89182C0.948813 7.93783 0.615844 8.11434 0.374498 8.38828C0.133152 8.66222 0 9.01478 0 9.37987C0 9.74496 0.133152 10.0975 0.374498 10.3715C0.615844 10.6454 0.948813 10.8219 1.31099 10.8679C1.67317 10.9139 2.0397 10.8262 2.34187 10.6213C2.64403 10.4164 2.8611 10.1084 2.95237 9.75487H4.50487V12.7549H2.95237C2.8611 12.4014 2.64403 12.0933 2.34187 11.8884C2.0397 11.6835 1.67317 11.5958 1.31099 11.6418C0.948813 11.6878 0.615844 11.8643 0.374498 12.1383C0.133152 12.4122 0 12.7648 0 13.1299C0 13.495 0.133152 13.8475 0.374498 14.1215C0.615844 14.3954 0.948813 14.5719 1.31099 14.6179C1.67317 14.6639 2.0397 14.5762 2.34187 14.3713C2.64403 14.1664 2.8611 13.8584 2.95237 13.5049H4.50487V13.8536C4.50677 14.1846 4.59624 14.5092 4.76419 14.7943C4.93215 15.0795 5.1726 15.3152 5.46112 15.4774L6.75487 16.1936V17.8511L6.00487 18.6011C5.68528 18.4148 5.30868 18.3515 4.94575 18.4232C4.58282 18.4949 4.25853 18.6965 4.03375 18.9903C3.80896 19.2841 3.69914 19.6499 3.72489 20.0189C3.75065 20.388 3.91021 20.7349 4.17363 20.9946C4.43705 21.2544 4.78621 21.409 5.15557 21.4296C5.52493 21.4501 5.88909 21.3352 6.17971 21.1063C6.47032 20.8774 6.66739 20.5503 6.73393 20.1864C6.80048 19.8225 6.73192 19.4468 6.54112 19.1299L7.39612 18.2786C7.43178 18.2427 7.45981 18.1999 7.4785 18.1529C7.49719 18.1058 7.50616 18.0555 7.50487 18.0049V16.6099L9.60487 17.7724C9.76887 17.863 9.946 17.9275 10.1299 17.9636V19.5574C9.77637 19.6486 9.4683 19.8657 9.26339 20.1679C9.05849 20.47 8.97082 20.8366 9.01682 21.1987C9.06283 21.5609 9.23934 21.8939 9.51328 22.1352C9.78722 22.3766 10.1398 22.5097 10.5049 22.5097C10.87 22.5097 11.2225 22.3766 11.4965 22.1352C11.7704 21.8939 11.9469 21.5609 11.9929 21.1987C12.0389 20.8366 11.9512 20.47 11.7463 20.1679C11.5414 19.8657 11.2334 19.6486 10.8799 19.5574V17.9636C11.0637 17.9275 11.2409 17.863 11.4049 17.7724L13.5049 16.6099V18.0049C13.5046 18.0542 13.514 18.1031 13.5327 18.1488C13.5514 18.1945 13.5789 18.2361 13.6136 18.2711L14.4686 19.1299C14.2807 19.4483 14.2155 19.8243 14.285 20.1874C14.3546 20.5505 14.5542 20.8757 14.8464 21.1022C15.1386 21.3286 15.5034 21.4407 15.8724 21.4174C16.2414 21.3941 16.5892 21.237 16.8506 20.9756C17.112 20.7142 17.2691 20.3664 17.2924 19.9974C17.3157 19.6284 17.2036 19.2636 16.9772 18.9714C16.7507 18.6792 16.4255 18.4796 16.0624 18.41C15.6993 18.3405 15.3233 18.4057 15.0049 18.5936L14.2549 17.8436V16.1936L15.5486 15.4774C15.8371 15.3152 16.0776 15.0795 16.2455 14.7943C16.4135 14.5092 16.503 14.1846 16.5049 13.8536V13.5049H18.0574C18.1276 13.7767 18.2726 14.0234 18.4761 14.2169C18.6795 14.4103 18.9332 14.5428 19.2082 14.5992C19.4833 14.6557 19.7686 14.6338 20.0318 14.5361C20.295 14.4384 20.5255 14.2687 20.6971 14.0465C20.8686 13.8243 20.9744 13.5583 21.0023 13.279C21.0302 12.9996 20.9792 12.718 20.8549 12.4662C20.7307 12.2144 20.5383 12.0026 20.2997 11.8547C20.061 11.7069 19.7856 11.629 19.5049 11.6299ZM19.5049 8.62987C19.6532 8.62987 19.7982 8.67386 19.9215 8.75627C20.0449 8.83868 20.141 8.95581 20.1978 9.09286C20.2545 9.2299 20.2694 9.3807 20.2405 9.52619C20.2115 9.67167 20.1401 9.80531 20.0352 9.9102C19.9303 10.0151 19.7967 10.0865 19.6512 10.1155C19.5057 10.1444 19.3549 10.1295 19.2179 10.0728C19.0808 10.016 18.9637 9.91988 18.8813 9.79655C18.7989 9.67321 18.7549 9.5282 18.7549 9.37987C18.7549 9.18096 18.8339 8.99019 18.9745 8.84954C19.1152 8.70889 19.306 8.62987 19.5049 8.62987ZM15.7549 1.87987C15.8781 1.87997 15.9993 1.91041 16.1079 1.96849C16.2166 2.02658 16.3092 2.11053 16.3777 2.21293C16.4462 2.31532 16.4884 2.433 16.5006 2.55558C16.5128 2.67816 16.4946 2.80185 16.4477 2.91574C16.4007 3.02962 16.3264 3.13019 16.2314 3.20855C16.1363 3.28691 16.0234 3.34065 15.9027 3.36503C15.782 3.38941 15.6571 3.38368 15.5391 3.34833C15.4211 3.31298 15.3136 3.24911 15.2261 3.16237C15.1206 3.05769 15.0485 2.92401 15.0191 2.7783C14.9897 2.63259 15.0042 2.48143 15.0609 2.344C15.1175 2.20657 15.2138 2.08908 15.3373 2.00644C15.4609 1.92381 15.6062 1.87975 15.7549 1.87987ZM4.50487 2.62987C4.50497 2.50669 4.53541 2.38542 4.59349 2.2768C4.65158 2.16817 4.73553 2.07552 4.83793 2.00704C4.94032 1.93856 5.058 1.89636 5.18058 1.88416C5.30316 1.87195 5.42685 1.89013 5.54074 1.93709C5.65462 1.98404 5.75519 2.05832 5.83355 2.15336C5.91191 2.24841 5.96565 2.36129 5.99003 2.48204C6.01441 2.60278 6.00868 2.72767 5.97333 2.84568C5.93798 2.96368 5.87411 3.07116 5.78737 3.15862C5.68269 3.26416 5.54901 3.33621 5.4033 3.36563C5.25759 3.39505 5.10643 3.38051 4.969 3.32385C4.83157 3.26719 4.71408 3.17097 4.63144 3.04741C4.54881 2.92385 4.50475 2.77852 4.50487 2.62987ZM1.50487 10.1299C1.35653 10.1299 1.21153 10.0859 1.08819 10.0035C0.964854 9.92106 0.868725 9.80393 0.811959 9.66688C0.755193 9.52984 0.740341 9.37904 0.76928 9.23355C0.798219 9.08807 0.869649 8.95443 0.974539 8.84954C1.07943 8.74465 1.21307 8.67322 1.35855 8.64428C1.50404 8.61534 1.65484 8.63019 1.79188 8.68696C1.92893 8.74372 2.04606 8.83985 2.12847 8.96319C2.21088 9.08653 2.25487 9.23153 2.25487 9.37987C2.25487 9.57878 2.17585 9.76955 2.0352 9.9102C1.89455 10.0509 1.70378 10.1299 1.50487 10.1299ZM1.50487 13.8799C1.35653 13.8799 1.21153 13.8359 1.08819 13.7535C0.964854 13.6711 0.868725 13.5539 0.811959 13.4169C0.755193 13.2798 0.740341 13.129 0.76928 12.9836C0.798219 12.8381 0.869649 12.7044 0.974539 12.5995C1.07943 12.4946 1.21307 12.4232 1.35855 12.3943C1.50404 12.3653 1.65484 12.3802 1.79188 12.437C1.92893 12.4937 2.04606 12.5899 2.12847 12.7132C2.21088 12.8365 2.25487 12.9815 2.25487 13.1299C2.25487 13.3288 2.17585 13.5195 2.0352 13.6602C1.89455 13.8009 1.70378 13.8799 1.50487 13.8799ZM5.25487 20.6299C5.13169 20.6298 5.01042 20.5993 4.9018 20.5412C4.79317 20.4832 4.70052 20.3992 4.63204 20.2968C4.56356 20.1944 4.52136 20.0767 4.50916 19.9542C4.49695 19.8316 4.51513 19.7079 4.56208 19.594C4.60904 19.4801 4.68332 19.3796 4.77836 19.3012C4.87341 19.2228 4.98629 19.1691 5.10704 19.1447C5.22778 19.1203 5.35267 19.1261 5.47068 19.1614C5.58868 19.1968 5.69616 19.2606 5.78362 19.3474C5.88916 19.452 5.96121 19.5857 5.99063 19.7314C6.02005 19.8771 6.00551 20.0283 5.94885 20.1657C5.89219 20.3032 5.79597 20.4207 5.67241 20.5033C5.54885 20.5859 5.40352 20.63 5.25487 20.6299ZM9.00487 12.7549C9.00487 12.8543 8.96536 12.9497 8.89503 13.02C8.82471 13.0904 8.72932 13.1299 8.62987 13.1299C8.56443 13.1295 8.50023 13.112 8.44365 13.0791C8.38707 13.0462 8.34009 12.999 8.30737 12.9424L6.75487 10.8799V12.7549C6.75487 12.8543 6.71536 12.9497 6.64503 13.02C6.57471 13.0904 6.47932 13.1299 6.37987 13.1299C6.28041 13.1299 6.18503 13.0904 6.1147 13.02C6.04438 12.9497 6.00487 12.8543 6.00487 12.7549V9.75487C6.00487 9.65541 6.04438 9.56003 6.1147 9.4897C6.18503 9.41938 6.28041 9.37987 6.37987 9.37987C6.44531 9.38026 6.50951 9.39778 6.56609 9.43067C6.62266 9.46357 6.66965 9.51069 6.70237 9.56737L8.25487 11.6299V9.75487C8.25487 9.65541 8.29438 9.56003 8.3647 9.4897C8.43503 9.41938 8.53041 9.37987 8.62987 9.37987C8.72932 9.37987 8.82471 9.41938 8.89503 9.4897C8.96536 9.56003 9.00487 9.65541 9.00487 9.75487V12.7549ZM16.5049 19.8799C16.5048 20.0031 16.4743 20.1243 16.4162 20.2329C16.3582 20.3416 16.2742 20.4342 16.1718 20.5027C16.0694 20.5712 15.9517 20.6134 15.8292 20.6256C15.7066 20.6378 15.5829 20.6196 15.469 20.5727C15.3551 20.5257 15.2546 20.4514 15.1762 20.3564C15.0978 20.2613 15.0441 20.1484 15.0197 20.0277C14.9953 19.907 15.0011 19.7821 15.0364 19.6641C15.0718 19.5461 15.1356 19.4386 15.2224 19.3511C15.327 19.2456 15.4607 19.1735 15.6064 19.1441C15.7521 19.1147 15.9033 19.1292 16.0407 19.1859C16.1782 19.2425 16.2957 19.3388 16.3783 19.4623C16.4609 19.5859 16.505 19.7312 16.5049 19.8799ZM9.75487 1.50487C9.75487 1.35653 9.79886 1.21153 9.88127 1.08819C9.96368 0.964854 10.0808 0.868725 10.2179 0.811959C10.3549 0.755193 10.5057 0.740341 10.6512 0.76928C10.7967 0.798219 10.9303 0.869649 11.0352 0.974539C11.1401 1.07943 11.2115 1.21307 11.2405 1.35855C11.2694 1.50404 11.2545 1.65484 11.1978 1.79188C11.141 1.92893 11.0449 2.04606 10.9215 2.12847C10.7982 2.21088 10.6532 2.25487 10.5049 2.25487C10.306 2.25487 10.1152 2.17585 9.97454 2.0352C9.83389 1.89455 9.75487 1.70378 9.75487 1.50487ZM11.2549 21.0049C11.2549 21.1532 11.2109 21.2982 11.1285 21.4215C11.0461 21.5449 10.9289 21.641 10.7919 21.6978C10.6548 21.7545 10.504 21.7694 10.3586 21.7405C10.2131 21.7115 10.0794 21.6401 9.97454 21.5352C9.86965 21.4303 9.79822 21.2967 9.76928 21.1512C9.74034 21.0057 9.75519 20.8549 9.81196 20.7179C9.86872 20.5808 9.96485 20.4637 10.0882 20.3813C10.2115 20.2989 10.3565 20.2549 10.5049 20.2549C10.7038 20.2549 10.8945 20.3339 11.0352 20.4745C11.1759 20.6152 11.2549 20.806 11.2549 21.0049ZM11.6299 10.8799C11.7293 10.8799 11.8247 10.9194 11.895 10.9897C11.9654 11.06 12.0049 11.1554 12.0049 11.2549C12.0049 11.3543 11.9654 11.4497 11.895 11.52C11.8247 11.5904 11.7293 11.6299 11.6299 11.6299H10.5049V12.7549C10.5049 12.8543 10.4654 12.9497 10.395 13.02C10.3247 13.0904 10.2293 13.1299 10.1299 13.1299C10.0304 13.1299 9.93503 13.0904 9.8647 13.02C9.79438 12.9497 9.75487 12.8543 9.75487 12.7549V9.75487C9.75487 9.65541 9.79438 9.56003 9.8647 9.4897C9.93503 9.41938 10.0304 9.37987 10.1299 9.37987H11.6299C11.7293 9.37987 11.8247 9.41938 11.895 9.4897C11.9654 9.56003 12.0049 9.65541 12.0049 9.75487C12.0049 9.85432 11.9654 9.94971 11.895 10.02C11.8247 10.0904 11.7293 10.1299 11.6299 10.1299H10.5049V10.8799H11.6299ZM14.6299 10.1299H14.2549V12.7549C14.2549 12.8543 14.2154 12.9497 14.145 13.02C14.0747 13.0904 13.9793 13.1299 13.8799 13.1299C13.7804 13.1299 13.685 13.0904 13.6147 13.02C13.5444 12.9497 13.5049 12.8543 13.5049 12.7549V10.1299H13.1299C13.0304 10.1299 12.935 10.0904 12.8647 10.02C12.7944 9.94971 12.7549 9.85432 12.7549 9.75487C12.7549 9.65541 12.7944 9.56003 12.8647 9.4897C12.935 9.41938 13.0304 9.37987 13.1299 9.37987H14.6299C14.7293 9.37987 14.8247 9.41938 14.895 9.4897C14.9654 9.56003 15.0049 9.65541 15.0049 9.75487C15.0049 9.85432 14.9654 9.94971 14.895 10.02C14.8247 10.0904 14.7293 10.1299 14.6299 10.1299ZM19.5049 13.8799C19.3565 13.8799 19.2115 13.8359 19.0882 13.7535C18.9649 13.6711 18.8687 13.5539 18.812 13.4169C18.7552 13.2798 18.7403 13.129 18.7693 12.9836C18.7982 12.8381 18.8696 12.7044 18.9745 12.5995C19.0794 12.4946 19.2131 12.4232 19.3586 12.3943C19.504 12.3653 19.6548 12.3802 19.7919 12.437C19.9289 12.4937 20.0461 12.5899 20.1285 12.7132C20.2109 12.8365 20.2549 12.9815 20.2549 13.1299C20.2549 13.3288 20.1759 13.5195 20.0352 13.6602C19.8945 13.8009 19.7038 13.8799 19.5049 13.8799Z" />
</svg>
