<svg width="19" height="20" viewBox="0 0 19 20" fill="#15BFFD" xmlns="http://www.w3.org/2000/svg">
<path d="M18.0494 3.33328C18.0494 4.8291 16.8369 6.04172 15.3411 6.04172C13.8453 6.04172 12.6328 4.8291 12.6328 3.33328C12.6328 1.83762 13.8453 0.625 15.3411 0.625C16.8369 0.625 18.0494 1.83762 18.0494 3.33328Z" />
<path d="M15.3411 6.66672C13.5027 6.66672 12.0078 5.17166 12.0078 3.33328C12.0078 1.49506 13.5027 0 15.3411 0C17.1795 0 18.6744 1.49506 18.6744 3.33328C18.6744 5.17166 17.1795 6.66672 15.3411 6.66672ZM15.3411 1.25C14.192 1.25 13.2578 2.18506 13.2578 3.33328C13.2578 4.48166 14.192 5.41672 15.3411 5.41672C16.4902 5.41672 17.4244 4.48166 17.4244 3.33328C17.4244 2.18506 16.4902 1.25 15.3411 1.25Z" />
<path d="M18.0494 16.6674C18.0494 18.1631 16.8369 19.3757 15.3411 19.3757C13.8453 19.3757 12.6328 18.1631 12.6328 16.6674C12.6328 15.1716 13.8453 13.959 15.3411 13.959C16.8369 13.959 18.0494 15.1716 18.0494 16.6674Z" />
<path d="M15.3411 20.0007C13.5027 20.0007 12.0078 18.5056 12.0078 16.6674C12.0078 14.829 13.5027 13.334 15.3411 13.334C17.1795 13.334 18.6744 14.829 18.6744 16.6674C18.6744 18.5056 17.1795 20.0007 15.3411 20.0007ZM15.3411 14.584C14.192 14.584 13.2578 15.519 13.2578 16.6674C13.2578 17.8156 14.192 18.7507 15.3411 18.7507C16.4902 18.7507 17.4244 17.8156 17.4244 16.6674C17.4244 15.519 16.4902 14.584 15.3411 14.584Z" />
<path d="M6.38351 9.9993C6.38351 11.4951 5.1709 12.7076 3.67508 12.7076C2.17941 12.7076 0.966797 11.4951 0.966797 9.9993C0.966797 8.50348 2.17941 7.29102 3.67508 7.29102C5.1709 7.29102 6.38351 8.50348 6.38351 9.9993Z" />
<path d="M3.67508 13.3326C1.83685 13.3326 0.341797 11.8377 0.341797 9.9993C0.341797 8.16092 1.83685 6.66602 3.67508 6.66602C5.51346 6.66602 7.00851 8.16092 7.00851 9.9993C7.00851 11.8377 5.51346 13.3326 3.67508 13.3326ZM3.67508 7.91602C2.52594 7.91602 1.5918 8.85092 1.5918 9.9993C1.5918 11.1477 2.52594 12.0826 3.67508 12.0826C4.82437 12.0826 5.75851 11.1477 5.75851 9.9993C5.75851 8.85092 4.82437 7.91602 3.67508 7.91602Z" />
<path d="M5.64276 9.59949C5.35269 9.59949 5.07101 9.44859 4.91766 9.17866C4.69015 8.77949 4.83023 8.2703 5.2294 8.04188L12.9618 3.63362C13.361 3.40443 13.8701 3.5445 14.0986 3.9452C14.3261 4.34437 14.186 4.85355 13.7868 5.08198L6.05429 9.49024C5.92428 9.5644 5.78268 9.59949 5.64276 9.59949Z" />
<path d="M13.3735 16.4743C13.2334 16.4743 13.0918 16.4392 12.9618 16.3651L5.22928 11.9568C4.83011 11.7293 4.69019 11.2201 4.9177 10.82C5.14429 10.4201 5.65424 10.2793 6.05433 10.5085L13.7869 14.9167C14.186 15.1442 14.326 15.6534 14.0985 16.0535C13.9443 16.3234 13.6627 16.4743 13.3735 16.4743Z" />
</svg>
