<svg width="20" height="20" viewBox="0 0 24 20" fill="#15BFFD" xmlns="http://www.w3.org/2000/svg">
<path d="M21.7573 11.0518C20.4815 12.8387 18.8302 14.3266 17.3945 15.5711C16.3515 16.4784 15.2739 17.3788 14.231 18.2514L12.4545 19.7427C12.296 19.8943 12.0893 19.9854 11.8705 20C11.6746 19.9938 11.4878 19.9159 11.3456 19.781C10.5182 19.0602 9.68733 18.3441 8.853 17.6326C7.35816 16.3394 5.81118 15.0045 4.31286 13.6626C2.76588 12.272 1.74382 10.9371 1.10069 9.49092C-0.157754 6.65768 0.297651 3.71319 2.28614 1.79771C2.98461 1.09708 3.84264 0.576376 4.78661 0.280287C5.73059 -0.015801 6.7323 -0.0784336 7.7058 0.0977644C9.23541 0.334158 10.5356 1.0781 11.8044 2.43736L11.8635 2.49994L11.8844 2.52427L11.9956 2.40955L12.3433 2.06192C12.9825 1.38094 13.7606 0.845349 14.6249 0.491465C15.4892 0.137581 16.4195 -0.0263267 17.3527 0.0108551C18.6457 0.046539 19.894 0.492014 20.9174 1.28302C21.9409 2.07403 22.6866 3.16969 23.047 4.41194C23.6971 6.66116 23.273 8.88951 21.7573 11.0518Z"/>
</svg>
