<svg width="24" height="24" viewBox="0 0 24 24" fill="none" xmlns="http://www.w3.org/2000/svg">
<path fill-rule="evenodd" clip-rule="evenodd" d="M11.696 15.9815C11.3268 16.1342 10.9046 16.2782 10.5108 16.2782C10.2055 16.2782 9.91877 16.192 9.68492 15.9582C9.51385 15.7871 8.98831 15.2628 9.00308 11.7994C9.01661 8.35446 9.52 7.85231 9.68492 7.68615C10.2658 7.10646 11.2271 7.50154 11.6382 7.67262C12.6523 8.09231 16.6228 10.2794 16.6228 11.8228C16.6228 13.3908 12.5662 15.6209 11.696 15.9815ZM12 0C3.14092 0 0 3.14092 0 12C0 20.8591 3.14092 24 12 24C20.8603 24 24 20.8591 24 12C24 3.14092 20.8603 0 12 0Z" />
</svg>
