<svg width="24" height="25" viewBox="0 0 24 25" fill="none" xmlns="http://www.w3.org/2000/svg">
<path d="M12.9503 18.1322V14.9738C12.9503 14.8682 12.9591 14.7714 12.9679 14.6747C12.484 14.921 11.9298 15.053 11.3491 15.053C9.30805 15.053 7.64526 13.3902 7.64526 11.3491C7.64526 9.30799 9.30805 7.65406 11.3491 7.65406C13.3902 7.65406 15.0442 9.30799 15.0442 11.3491C15.0442 11.7186 14.9914 12.0705 14.8859 12.4048L22.1088 9.396C22.2408 9.33441 22.3815 9.29044 22.5223 9.26402C21.537 3.99417 16.9093 0 11.3579 0C5.09394 0 0 5.09389 0 11.3579C0 17.1029 4.28451 21.8712 9.83589 22.6103C9.82714 22.4695 9.81833 22.3287 9.81833 22.1879C9.81833 20.2349 11.1556 18.6072 12.9503 18.1322Z" />
<path d="M11.3583 10.4688C10.8656 10.4688 10.4785 10.8647 10.4785 11.3485C10.4785 11.8324 10.8744 12.2283 11.3671 12.2283C11.851 12.2283 12.2469 11.8324 12.2469 11.3485C12.2469 10.8647 11.851 10.4688 11.3671 10.4688H11.3583Z" />
<path d="M23.6085 11.1009C23.3627 10.9377 23.0543 10.9076 22.782 11.021L15.2514 14.1612C14.9233 14.2978 14.7102 14.6183 14.7102 14.9731V19.8409C14.491 19.7772 14.2636 19.7329 14.0237 19.7329C12.6753 19.7329 11.5781 20.8343 11.5781 22.1875C11.5781 23.5363 12.6753 24.6335 14.0237 24.6335C15.3769 24.6335 16.4783 23.5363 16.4783 22.1875C16.4783 22.1552 16.4741 22.1113 16.4697 22.0672V18.5339L22.2407 16.1334V18.1975C22.0217 18.1329 21.7947 18.0876 21.5551 18.0876C20.2062 18.0876 19.1091 19.1847 19.1091 20.5336C19.1091 21.8868 20.2062 22.9882 21.5551 22.9882C22.8902 22.9882 23.9874 21.8945 24.0002 20.5508C24.0002 20.5482 24.0002 20.5362 24.0002 20.5336V14.8205V14.8194V11.8329C24.0002 11.5391 23.8533 11.2641 23.6085 11.1009Z" />
</svg>
