<svg width="24" height="24" viewBox="0 0 24 24" fill="none" xmlns="http://www.w3.org/2000/svg">
<path d="M22.4779 12C22.4779 11.6775 22.6504 11.25 22.8154 10.83C23.1004 10.125 23.4229 9.3225 23.1454 8.5125C22.8679 7.6875 22.1029 7.215 21.4354 6.795C21.0529 6.5625 20.6554 6.315 20.4679 6.075C20.2804 5.8275 20.1604 5.4075 20.0404 4.965C19.8304 4.23 19.5979 3.39 18.8779 2.8875C18.1729 2.4 17.2879 2.445 16.5004 2.4825C16.0354 2.505 15.5554 2.5275 15.2329 2.4225C14.9329 2.3325 14.5879 2.0625 14.2279 1.785C13.6061 1.2975 12.9011 0.75 12.0011 0.75C11.1011 0.75 10.3961 1.2975 9.7736 1.785C9.4136 2.0625 9.0686 2.3325 8.7686 2.4225C8.4461 2.5275 7.9661 2.505 7.5011 2.4825C6.7136 2.445 5.8286 2.4 5.1236 2.8875C4.4036 3.39 4.1711 4.23 3.9611 4.965C3.8411 5.4075 3.7211 5.8275 3.5336 6.075C3.3461 6.315 2.9486 6.5625 2.5736 6.795C1.8986 7.215 1.1336 7.6875 0.856103 8.5125C0.578603 9.3225 0.901103 10.125 1.1861 10.83C1.3511 11.25 1.5236 11.6775 1.5236 12C1.5236 12.3225 1.3511 12.75 1.1861 13.17C0.901103 13.875 0.578603 14.6775 0.856103 15.4875C1.1336 16.3125 1.8986 16.785 2.5661 17.205C2.9486 17.4375 3.3461 17.685 3.5336 17.925C3.7211 18.1725 3.8411 18.5925 3.9611 19.035C4.1711 19.77 4.4036 20.61 5.1236 21.1125C5.8286 21.6 6.7136 21.555 7.5011 21.5175C7.9661 21.495 8.4461 21.4725 8.7686 21.5775C9.0686 21.6675 9.4136 21.9375 9.7736 22.215C10.3961 22.7025 11.1011 23.25 12.0011 23.25C12.9011 23.25 13.6061 22.7025 14.2286 22.215C14.5886 21.9375 14.9336 21.6675 15.2336 21.5775C15.5561 21.4725 16.0361 21.495 16.5011 21.5175C17.2886 21.555 18.1736 21.6 18.8786 21.1125C19.5986 20.61 19.8311 19.77 20.0411 19.035C20.1611 18.5925 20.2811 18.1725 20.4686 17.925C20.6561 17.685 21.0536 17.4375 21.4286 17.205C22.1036 16.785 22.8686 16.3125 23.1461 15.4875C23.4236 14.6775 23.1011 13.875 22.8161 13.17C22.6504 12.75 22.4779 12.3225 22.4779 12ZM9.0011 14.25C9.0011 14.58 8.7836 14.8725 8.4686 14.97C8.3936 14.9925 8.3261 15 8.2511 15C8.0036 15 7.7711 14.88 7.6286 14.6625L6.0011 12.225V14.25C6.0011 14.6625 5.6636 15 5.2511 15C4.8386 15 4.5011 14.6625 4.5011 14.25V9.75C4.5011 9.42 4.7186 9.1275 5.0336 9.03C5.3486 8.9325 5.6936 9.06 5.8736 9.3375L7.5011 11.775V9.75C7.5011 9.3375 7.8386 9 8.2511 9C8.6636 9 9.0011 9.3375 9.0011 9.75V14.25ZM12.7511 11.25C13.1636 11.25 13.5011 11.5875 13.5011 12C13.5011 12.4125 13.1636 12.75 12.7511 12.75H11.2511V13.5H12.7511C13.1636 13.5 13.5011 13.8375 13.5011 14.25C13.5011 14.6625 13.1636 15 12.7511 15H10.5011C10.0886 15 9.7511 14.6625 9.7511 14.25V9.75C9.7511 9.3375 10.0886 9 10.5011 9H12.7511C13.1636 9 13.5011 9.3375 13.5011 9.75C13.5011 10.1625 13.1636 10.5 12.7511 10.5H11.2511V11.25H12.7511ZM18.7429 14.37C18.6829 14.7075 18.4129 14.9625 18.0754 15H18.0004C17.6929 15 17.4079 14.805 17.2954 14.5125L16.8754 13.3875L16.4554 14.5125C16.3354 14.835 16.0129 15.03 15.6754 15C15.3379 14.9625 15.0679 14.7075 15.0079 14.37L14.2579 9.87C14.1904 9.465 14.4679 9.075 14.8804 9.0075C15.2854 8.94 15.6754 9.2175 15.7429 9.63L16.0279 11.37L16.1704 10.9875C16.2829 10.695 16.5604 10.5 16.8754 10.5C17.1904 10.5 17.4679 10.695 17.5804 10.9875L17.7229 11.37L18.0079 9.63C18.0754 9.2175 18.4654 8.94 18.8704 9.0075C19.2829 9.075 19.5604 9.465 19.4929 9.87L18.7429 14.37Z" />
</svg>
