<svg width="24" height="24" viewBox="0 0 24 24" fill="none" xmlns="http://www.w3.org/2000/svg">
<g clip-path="url(#clip0_658_4624)">
<path d="M11.8295 11.5609C13.4177 11.5609 14.793 10.9912 15.9167 9.86733C17.0405 8.74362 17.6101 7.36868 17.6101 5.78025C17.6101 4.19237 17.0405 2.81725 15.9166 1.69317C14.7927 0.569639 13.4175 0 11.8295 0C10.241 0 8.86609 0.569639 7.74237 1.69335C6.61865 2.81707 6.04883 4.19218 6.04883 5.78025C6.04883 7.36868 6.61865 8.7438 7.74255 9.86751C8.86646 10.991 10.2416 11.5609 11.8295 11.5609Z"/>
<path d="M21.9435 19.4224C21.9111 18.9547 21.8456 18.4446 21.7491 17.9059C21.6517 17.3632 21.5262 16.8501 21.3761 16.3812C21.221 15.8965 21.0101 15.4179 20.7493 14.9592C20.4787 14.4831 20.1608 14.0686 19.8041 13.7275C19.4312 13.3706 18.9745 13.0837 18.4464 12.8744C17.9202 12.6662 17.337 12.5607 16.7131 12.5607C16.4681 12.5607 16.2312 12.6613 15.7736 12.9592C15.492 13.1428 15.1626 13.3552 14.7949 13.5901C14.4805 13.7905 14.0546 13.9781 13.5286 14.1481C13.0153 14.3141 12.4942 14.3984 11.9799 14.3984C11.4655 14.3984 10.9446 14.3141 10.4308 14.1481C9.90527 13.9783 9.47937 13.7906 9.16534 13.5903C8.80115 13.3576 8.47156 13.1452 8.18573 12.959C7.7287 12.6611 7.49158 12.5605 7.24658 12.5605C6.62256 12.5605 6.03955 12.6662 5.51349 12.8746C4.98578 13.0835 4.52893 13.3704 4.15558 13.7277C3.79907 14.069 3.48102 14.4833 3.21075 14.9592C2.9502 15.4179 2.73926 15.8963 2.58398 16.3814C2.43402 16.8503 2.30859 17.3632 2.21118 17.9059C2.11469 18.4439 2.04913 18.9542 2.01672 19.4229C1.98486 19.8822 1.96875 20.3588 1.96875 20.8402C1.96875 22.093 2.367 23.1072 3.15234 23.8552C3.92798 24.5933 4.95428 24.9677 6.20233 24.9677H17.7585C19.0065 24.9677 20.0325 24.5935 20.8083 23.8552C21.5938 23.1077 21.9921 22.0933 21.9921 20.84C21.9919 20.3564 21.9756 19.8794 21.9435 19.4224Z" />
</g>
<defs>
<clipPath id="clip0_658_4624">
<rect width="24" height="24" />
</clipPath>
</defs>
</svg>
